<svg width="122" height="32" viewBox="0 0 122 32" fill="none" xmlns="http://www.w3.org/2000/svg">
<g clip-path="url(#clip0_1490_7939)">
<path d="M26.6214 31.5001L24.763 4.44434H15.8169L0.643066 31.5001H5.26934L17.4479 9.78235C17.5566 9.60441 17.7445 9.48579 17.9718 9.48579C18.2684 9.48579 18.5254 9.70326 18.5649 9.99982L19.4052 22.2674C19.3854 22.9198 18.8516 23.4437 18.1893 23.4437H10.7655L8.65008 27.3582H18.7132C19.3261 27.3582 19.8302 27.8624 19.8302 28.4753L20.0378 31.5001H26.6115H26.6214Z" fill="#0B318F"/>
<path d="M77.3621 31.5001L74.96 4.44434H66.2017L52.402 31.5001H56.8503L67.8525 10.0492C67.9514 9.87131 68.1293 9.75269 68.3468 9.75269C68.6335 9.75269 68.8806 9.98005 68.93 10.2667L69.9976 22.2674C70.0471 22.9989 69.5133 23.4437 68.8608 23.4437H61.9807L60.0334 27.3582H69.3551C69.9976 27.3582 70.5117 27.813 70.5314 28.5642L70.8082 31.5001H77.3621Z" fill="#0B318F"/>
<path d="M51.9967 4.43408L48.3688 25.4401C48.3095 25.628 48.1316 25.7664 47.924 25.7664C47.7164 25.7664 47.5286 25.628 47.4791 25.4303L41.459 4.43408H32.335L27.6593 31.4899H31.7024L35.3203 10.5728V10.6024C35.3796 10.385 35.5773 10.2268 35.8047 10.2268C36.0222 10.2268 36.21 10.3652 36.2792 10.5728L42.2795 31.4998H51.3838L56.0595 4.44397H52.0164L51.9967 4.43408Z" fill="#0B318F"/>
<path d="M96.8657 0.5L79.2305 31.5H99.1887L116.824 0.5H96.8657Z" fill="#0B318F"/>
<path d="M116.824 0.5L99.1887 31.5H104.181L121.806 0.5H116.824Z" fill="#00A7EA"/>
</g>
<defs>
<clipPath id="clip0_1490_7939">
<rect width="121.163" height="31" fill="white" transform="translate(0.643066 0.5)"/>
</clipPath>
</defs>
</svg>
