<svg width="268" height="53" viewBox="0 0 268 53" fill="none" xmlns="http://www.w3.org/2000/svg">
<g clip-path="url(#clip0_1490_7904)">
<path d="M266.24 37.144C266.16 37.144 265.98 37.134 265.9 37.064C265.7 36.8839 265.56 36.5838 265.46 36.0836C265.46 36.0736 262.318 16.0761 262.318 16.0761C262.338 16.2461 262.418 15.0257 262.438 14.7556C262.618 14.6755 264.069 14.0353 264.069 14.0353L264.279 12.9449V1.24047H239C239 1.24047 238.399 3.28124 238.229 3.84145C237.979 3.1912 237.209 1.24047 237.209 1.24047H212.75V9.04341C207.828 3.40128 200.575 0 192.282 0C183.989 0 175.766 3.30125 170.484 8.7333C166.082 3.13118 159.23 0.0600227 150.316 0.0600227C142.173 0.0600227 135.451 3.35126 130.149 9.5436C126.577 3.84145 122.496 1.24047 111.702 1.24047H87.4724V14.0853L88.6029 14.6855L89.5732 15.2458C89.5732 15.3158 89.6632 15.966 89.6632 15.966C89.6632 15.966 89.6332 26.59 89.6232 32.9424C86.5821 25.0795 77.7387 2.24085 77.7387 2.24085L77.3486 1.25047H59.0317C59.0317 1.25047 51.2488 21.7882 47.5173 31.6219V30.2114H34.8025L34.4324 31.2718C34.3424 31.5319 33.432 33.8328 30.2408 33.8328C26.5995 33.8328 22.5579 30.8316 22.3078 24.2291C22.1878 21.0179 23.8984 18.9171 25.409 18.0868C26.2593 17.6166 26.8295 17.6667 26.9296 17.7367C27.3397 18.0468 27.3597 18.2569 27.3597 18.3469C27.3897 18.8171 26.8996 19.5374 26.5494 19.8675L25.1989 21.198L26.7495 22.2784L36.113 28.7008L50.2984 13.7052L49.7882 12.7248C49.5281 12.2146 43.1457 0.190072 27.1497 0.190072C11.1536 0.190072 0.0394287 11.2142 0.0394287 26.41C0.0394287 40.6553 12.8843 51.8196 29.2805 51.8196H113.732V39.0047L112.432 38.7846C112.322 38.7646 112.202 38.7246 112.082 38.6946C118.014 37.114 123.186 34.1729 126.037 32.0721C129.968 44.1166 141.043 51.8296 155.038 51.8296H171.714V45.5172C175.316 48.4683 182.318 53.01 191.592 53.01C198.734 53.01 204.657 49.8288 207.868 47.678V51.8496H232.297V43.0863H242.171V51.8296H267.961V37.034L266.25 37.144H266.24Z" fill="white"/>
<path d="M105.619 13.1748V29.591C105.619 29.591 116.713 24.9892 116.713 18.4868C116.713 10.4537 105.619 13.1748 105.619 13.1748Z" fill="#231815"/>
<path d="M191.472 12.3545C186.63 12.3545 180.137 15.1856 180.137 26.5298C180.137 37.8741 185.92 40.6952 191.472 40.6952C197.024 40.6952 202.926 37.1539 202.926 26.5298C202.926 15.9058 196.313 12.3545 191.472 12.3545Z" fill="#231815"/>
<path d="M62.8732 26.64H70.6661L66.6446 15.4258L62.8732 26.64Z" fill="#231815"/>
<path d="M264.919 38.3245C264.359 37.8243 264.129 37.144 263.999 36.4938L260.848 16.4262C260.848 16.4262 260.788 14.5755 261.138 13.9953C261.498 13.4151 262.799 13.0549 262.799 13.0549V2.90111H240.24L238.529 8.74332L236.229 2.90111H214.38V13.6452C210.179 6.36242 202.076 1.66064 192.352 1.66064C184.449 1.66064 175.816 4.63177 170.444 11.0442C166.602 5.22199 159.88 1.72067 150.366 1.72067C140.853 1.72067 134.64 5.89224 129.938 12.2346C126.527 6.09232 123.506 2.90111 111.752 2.90111H89.083V13.295C89.083 13.295 90.1634 13.5951 90.7937 14.3254C91.1738 14.7656 91.2538 15.4458 91.2538 16.0661C91.2538 16.6863 91.2038 38.6846 91.2038 38.6846C90.2635 38.2144 89.3131 36.4438 89.3131 36.4438L76.3282 2.90111H60.1521L46.0068 40.2152V31.872H35.943C35.943 31.872 34.7625 35.4934 30.2808 35.4934C25.439 35.4934 21.0674 31.4819 20.7872 24.3892C20.5472 18.2469 25.9792 15.1257 27.9099 16.5963C30.3909 18.487 27.6698 21.088 27.6698 21.088L35.933 26.7601L48.4477 13.5351C48.4477 13.5351 42.4354 1.84071 27.2097 1.84071C11.9839 1.84071 1.65002 13.175 1.65002 26.52C1.65002 39.8651 13.9847 50.369 29.3305 50.369H112.232V40.4153C112.232 40.4153 109.571 39.9751 109.571 38.7346C109.571 38.0444 109.881 37.8143 110.511 37.6742C118.594 35.8636 125.337 31.0417 126.867 29.5812C130.098 43.0062 141.643 50.369 155.088 50.369H170.204V42.1059C170.204 42.1059 178.787 51.5495 191.632 51.5495C201.676 51.5495 209.468 44.6969 209.468 44.6969V50.389H230.786V41.6257H243.771V50.369H266.44V38.7947C266.44 38.7947 265.56 38.9047 264.909 38.3245M41.0149 45.7673H28.7302C14.0847 45.7673 5.94164 34.313 5.94164 26.0499C5.94164 13.3751 16.9658 6.34241 26.9596 6.34241C36.9533 6.34241 42.4854 13.7352 42.4854 13.7352L35.8129 20.7278C35.8129 20.7278 35.4628 20.9079 35.1627 20.9079C34.8626 20.9079 34.4524 20.6178 34.4524 20.6178L33.6221 19.9075C33.6221 19.9075 33.382 19.8475 33.382 19.6074C33.382 19.3673 34.0322 18.7771 34.0322 17.6567C34.0322 16.5363 33.8022 11.8745 26.5894 11.8745C19.3767 11.8745 16.1955 18.607 16.1955 24.1591C16.1955 29.7112 19.6168 39.8651 30.841 39.8651C37.3735 39.8651 38.754 36.2037 38.754 36.2037H40.9949V45.7673H41.0149ZM89.073 45.8873H74.2474V43.0563C74.2474 43.0563 75.1878 43.1763 75.668 42.346C76.1381 41.5157 76.1381 40.8654 75.788 40.0451C75.4379 39.2148 72.9569 32.6623 72.9569 32.6623H60.8524C60.8524 32.6623 58.3714 39.2748 58.1313 39.8651C57.8912 40.4553 57.8912 41.3956 58.1313 41.9859C58.5215 42.9662 59.902 43.1063 59.902 43.1063V45.8773H48.0375V43.1063C48.0375 43.1063 49.1179 42.7361 49.9282 41.9258C50.8186 41.0455 51.1087 40.0951 51.1087 40.0951L63.1632 7.39281H73.257L85.5417 39.5149C85.8918 40.4053 86.482 41.2256 87.0723 41.9358C87.6625 42.6461 89.083 43.1163 89.083 43.1163V45.8873H89.073ZM117.174 30.7716C112.132 33.0925 105.479 34.9032 105.479 34.9032V41.0455C105.479 41.0455 105.539 41.4557 106.129 42.1659C106.72 42.8762 107.37 43.0563 107.37 43.0563V45.8873H93.6748V43.1163C93.6748 43.1163 94.5051 42.9362 95.0953 42.346C95.6855 41.7558 95.8056 41.0455 95.8056 41.0455V13.295C95.8056 13.295 95.8656 12.1146 95.3954 11.6444C94.9252 11.1742 93.8048 10.524 93.8048 10.524V7.39281H112.702C119.665 7.39281 126.637 9.87374 126.637 17.8968C126.637 25.9198 121.555 28.7609 117.194 30.7716M151.677 11.9445C144.474 11.9445 141.283 18.6771 141.283 24.2192C141.283 29.7612 144.704 39.9251 155.928 39.9251C162.461 39.9251 163.841 36.2637 163.841 36.2637H166.082V45.8273H153.797C139.152 45.8273 131.009 34.373 131.009 26.1099C131.009 13.4351 142.033 6.40243 152.027 6.40243C162.021 6.40243 167.553 13.8052 167.553 13.8052L160.88 20.7979C160.88 20.7979 160.53 20.9779 160.23 20.9779C159.93 20.9779 159.52 20.6778 159.52 20.6778L158.689 19.9676C158.689 19.9676 158.449 19.9075 158.449 19.6774C158.449 19.4474 159.099 18.8471 159.099 17.7267C159.099 16.6063 158.859 11.9445 151.657 11.9445M191.452 46.9878C178.697 46.9878 169.533 37.6742 169.533 26.34C169.533 15.0057 178.937 6.22237 191.452 6.22237C203.966 6.22237 213.37 15.0057 213.37 26.34C213.37 37.6742 204.196 46.9878 191.452 46.9878ZM262.358 45.8973H248.253V43.3364C248.253 43.3364 249.494 43.1563 249.904 42.5661C250.314 41.9759 250.494 41.6157 250.374 40.6754C250.254 39.735 246.893 18.2369 246.893 18.2369L240.75 37.2441H233.307L227.225 19.4173L224.154 40.4353C224.154 40.4353 224.034 41.6958 224.504 42.386C225.154 43.3364 226.335 43.3364 226.335 43.3364V45.8773H214.11V43.1663C214.11 43.1663 215.081 43.0163 215.791 42.1959C216.501 41.3656 216.621 40.3052 216.621 40.3052L221.083 12.5848C221.083 12.5848 221.353 11.5544 221.053 11.0742C220.743 10.574 219.072 10.1538 219.072 10.1538V7.40281H233.127L238.209 23.0887L243.641 7.3828H258.347V9.68367C258.347 9.68367 257.367 10.0938 256.926 10.634C256.396 11.2843 256.396 11.7545 256.516 12.6948C256.636 13.6352 260.408 39.2648 260.528 40.2052C260.648 41.1555 260.768 41.6857 261.008 42.336C261.238 42.9862 262.358 43.5164 262.358 43.5164V45.8973Z" fill="#231815"/>
<path d="M105.619 13.1748V29.591C105.619 29.591 116.713 24.9892 116.713 18.4868C116.713 10.4537 105.619 13.1748 105.619 13.1748Z" fill="white"/>
<path d="M191.472 12.3545C186.63 12.3545 180.137 15.1856 180.137 26.5298C180.137 37.8741 185.92 40.6952 191.472 40.6952C197.024 40.6952 202.926 37.1539 202.926 26.5298C202.926 15.9058 196.313 12.3545 191.472 12.3545Z" fill="white"/>
<path d="M62.8732 26.64H70.6661L66.6446 15.4258L62.8732 26.64Z" fill="white"/>
<path d="M264.919 38.3245C264.359 37.8243 264.129 37.144 263.999 36.4938L260.848 16.4262C260.848 16.4262 260.788 14.5755 261.138 13.9953C261.498 13.4151 262.799 13.0549 262.799 13.0549V2.90111H240.24L238.529 8.74332L236.229 2.90111H214.38V13.6452C210.179 6.36242 202.076 1.66064 192.352 1.66064C184.449 1.66064 175.816 4.63177 170.444 11.0442C166.602 5.22199 159.88 1.72067 150.366 1.72067C140.853 1.72067 134.64 5.89224 129.938 12.2346C126.527 6.09232 123.506 2.90111 111.752 2.90111H89.083V13.295C89.083 13.295 90.1634 13.5951 90.7937 14.3254C91.1738 14.7656 91.2538 15.4458 91.2538 16.0661C91.2538 16.6863 91.2038 38.6846 91.2038 38.6846C90.2635 38.2144 89.3131 36.4438 89.3131 36.4438L76.3282 2.90111H60.1521L46.0068 40.2152V31.872H35.943C35.943 31.872 34.7625 35.4934 30.2808 35.4934C25.439 35.4934 21.0674 31.4819 20.7872 24.3892C20.5472 18.2469 25.9792 15.1257 27.9099 16.5963C30.3909 18.487 27.6698 21.088 27.6698 21.088L35.933 26.7601L48.4477 13.5351C48.4477 13.5351 42.4354 1.84071 27.2097 1.84071C11.9839 1.84071 1.65002 13.175 1.65002 26.52C1.65002 39.8651 13.9847 50.369 29.3305 50.369H112.232V40.4153C112.232 40.4153 109.571 39.9751 109.571 38.7346C109.571 38.0444 109.881 37.8143 110.511 37.6742C118.594 35.8636 125.337 31.0417 126.867 29.5812C130.098 43.0062 141.643 50.369 155.088 50.369H170.204V42.1059C170.204 42.1059 178.787 51.5495 191.632 51.5495C201.676 51.5495 209.468 44.6969 209.468 44.6969V50.389H230.786V41.6257H243.771V50.369H266.44V38.7947C266.44 38.7947 265.56 38.9047 264.909 38.3245M41.0149 45.7673H28.7302C14.0847 45.7673 5.94164 34.313 5.94164 26.0499C5.94164 13.3751 16.9658 6.34241 26.9596 6.34241C36.9533 6.34241 42.4854 13.7352 42.4854 13.7352L35.8129 20.7278C35.8129 20.7278 35.4628 20.9079 35.1627 20.9079C34.8626 20.9079 34.4524 20.6178 34.4524 20.6178L33.6221 19.9075C33.6221 19.9075 33.382 19.8475 33.382 19.6074C33.382 19.3673 34.0322 18.7771 34.0322 17.6567C34.0322 16.5363 33.8022 11.8745 26.5894 11.8745C19.3767 11.8745 16.1955 18.607 16.1955 24.1591C16.1955 29.7112 19.6168 39.8651 30.841 39.8651C37.3735 39.8651 38.754 36.2037 38.754 36.2037H40.9949V45.7673H41.0149ZM89.073 45.8873H74.2474V43.0563C74.2474 43.0563 75.1878 43.1763 75.668 42.346C76.1381 41.5157 76.1381 40.8654 75.788 40.0451C75.4379 39.2148 72.9569 32.6623 72.9569 32.6623H60.8524C60.8524 32.6623 58.3714 39.2748 58.1313 39.8651C57.8912 40.4553 57.8912 41.3956 58.1313 41.9859C58.5215 42.9662 59.902 43.1063 59.902 43.1063V45.8773H48.0375V43.1063C48.0375 43.1063 49.1179 42.7361 49.9282 41.9258C50.8186 41.0455 51.1087 40.0951 51.1087 40.0951L63.1632 7.39281H73.257L85.5417 39.5149C85.8918 40.4053 86.482 41.2256 87.0723 41.9358C87.6625 42.6461 89.083 43.1163 89.083 43.1163V45.8873H89.073ZM117.174 30.7716C112.132 33.0925 105.479 34.9032 105.479 34.9032V41.0455C105.479 41.0455 105.539 41.4557 106.129 42.1659C106.72 42.8762 107.37 43.0563 107.37 43.0563V45.8873H93.6748V43.1163C93.6748 43.1163 94.5051 42.9362 95.0953 42.346C95.6855 41.7558 95.8056 41.0455 95.8056 41.0455V13.295C95.8056 13.295 95.8656 12.1146 95.3954 11.6444C94.9252 11.1742 93.8048 10.524 93.8048 10.524V7.39281H112.702C119.665 7.39281 126.637 9.87374 126.637 17.8968C126.637 25.9198 121.555 28.7609 117.194 30.7716M151.677 11.9445C144.474 11.9445 141.283 18.6771 141.283 24.2192C141.283 29.7612 144.704 39.9251 155.928 39.9251C162.461 39.9251 163.841 36.2637 163.841 36.2637H166.082V45.8273H153.797C139.152 45.8273 131.009 34.373 131.009 26.1099C131.009 13.4351 142.033 6.40243 152.027 6.40243C162.021 6.40243 167.553 13.8052 167.553 13.8052L160.88 20.7979C160.88 20.7979 160.53 20.9779 160.23 20.9779C159.93 20.9779 159.52 20.6778 159.52 20.6778L158.689 19.9676C158.689 19.9676 158.449 19.9075 158.449 19.6774C158.449 19.4474 159.099 18.8471 159.099 17.7267C159.099 16.6063 158.859 11.9445 151.657 11.9445M191.452 46.9878C178.697 46.9878 169.533 37.6742 169.533 26.34C169.533 15.0057 178.937 6.22237 191.452 6.22237C203.966 6.22237 213.37 15.0057 213.37 26.34C213.37 37.6742 204.196 46.9878 191.452 46.9878ZM262.358 45.8973H248.253V43.3364C248.253 43.3364 249.494 43.1563 249.904 42.5661C250.314 41.9759 250.494 41.6157 250.374 40.6754C250.254 39.735 246.893 18.2369 246.893 18.2369L240.75 37.2441H233.307L227.225 19.4173L224.154 40.4353C224.154 40.4353 224.034 41.6958 224.504 42.386C225.154 43.3364 226.335 43.3364 226.335 43.3364V45.8773H214.11V43.1663C214.11 43.1663 215.081 43.0163 215.791 42.1959C216.501 41.3656 216.621 40.3052 216.621 40.3052L221.083 12.5848C221.083 12.5848 221.353 11.5544 221.053 11.0742C220.743 10.574 219.072 10.1538 219.072 10.1538V7.40281H233.127L238.209 23.0887L243.641 7.3828H258.347V9.68367C258.347 9.68367 257.367 10.0938 256.926 10.634C256.396 11.2843 256.396 11.7545 256.516 12.6948C256.636 13.6352 260.408 39.2648 260.528 40.2052C260.648 41.1555 260.768 41.6857 261.008 42.336C261.238 42.9862 262.358 43.5164 262.358 43.5164V45.8973Z" fill="white"/>
<path d="M48.4577 13.5349L35.943 26.7599L27.6798 21.0877C27.6798 21.0877 30.3909 18.4868 27.9199 16.596C25.9892 15.1255 20.5572 18.2467 20.7973 24.389C21.0674 31.4717 25.449 35.4932 30.2908 35.4932C34.7825 35.4932 35.963 31.8718 35.963 31.8718H46.0268V40.215L60.1521 2.90087H76.3282L89.3231 36.4335C89.3231 36.4335 90.2635 38.2042 91.2138 38.6744C91.2138 38.6744 91.2638 16.6761 91.2638 16.0558C91.2638 15.4356 91.1838 14.7553 90.8037 14.3152C90.1634 13.5849 89.093 13.2848 89.093 13.2848V2.90087H111.762C123.516 2.90087 126.537 6.09208 129.948 12.2344C134.66 5.90201 141.133 1.73043 150.376 1.73043C159.62 1.73043 166.612 5.23175 170.454 11.054C175.816 4.64153 184.459 1.67041 192.362 1.67041C202.076 1.67041 210.189 6.37218 214.39 13.6549V2.90087H236.239L238.539 8.74308L240.25 2.90087H262.809V13.0547C262.809 13.0547 261.508 13.4048 261.148 13.9951C260.798 14.5753 260.858 16.426 260.858 16.426L264.009 36.4936C264.139 37.1438 264.369 37.8241 264.929 38.3242C265.58 38.9045 266.46 38.7944 266.46 38.7944V50.3688H243.791V41.6255H230.807V50.3888H209.488V44.6967C209.488 44.6967 201.696 51.5492 191.652 51.5492C178.807 51.5492 170.224 42.0957 170.224 42.0957V50.3688H155.108C141.663 50.3688 130.109 43.006 126.887 29.5809C125.357 31.0415 118.614 35.8533 110.531 37.674C109.901 37.8141 109.591 38.0541 109.591 38.7344C109.591 39.9749 112.252 40.415 112.252 40.415V50.3688H29.3305C13.9747 50.3688 1.65002 39.8548 1.65002 26.5198C1.65002 13.1848 11.2637 1.84047 27.2097 1.84047C43.1557 1.84047 48.4677 13.5349 48.4677 13.5349" fill="#004097"/>
<path d="M42.4954 13.7353L35.8229 20.728C35.8229 20.728 35.4728 20.908 35.1727 20.908C34.8726 20.908 34.4624 20.6179 34.4624 20.6179L33.6321 19.9076C33.6321 19.9076 33.392 19.8476 33.392 19.6075C33.392 19.3674 34.0423 18.7872 34.0423 17.6568C34.0423 16.5264 33.8022 11.8746 26.5994 11.8746C19.3967 11.8746 16.2055 18.6072 16.2055 24.1492C16.2055 29.6913 19.6268 39.8552 30.851 39.8552C37.3835 39.8552 38.764 36.1938 38.764 36.1938H41.0049V45.7574H28.7202C14.0747 45.7574 5.93164 34.3031 5.93164 26.04C5.93164 13.3652 16.9558 6.33252 26.9496 6.33252C36.9433 6.33252 42.4754 13.7253 42.4754 13.7253" fill="#FCCF00"/>
<path d="M63.1633 7.39258H73.2571L85.5417 39.5147C85.8918 40.405 86.4921 41.2253 87.0823 41.9356C87.6725 42.6459 89.093 43.1161 89.093 43.1161V45.8871H74.2674V43.056C74.2674 43.056 75.2078 43.1761 75.688 42.3458C76.1582 41.5155 76.1582 40.8652 75.808 40.0449C75.4579 39.2146 72.977 32.6621 72.977 32.6621H60.8724C60.8724 32.6621 58.3915 39.2746 58.1514 39.8648C57.9113 40.4551 57.9113 41.3954 58.1514 41.9856C58.5415 42.966 59.922 43.1061 59.922 43.1061V45.8771H48.0576V43.1061C48.0576 43.1061 49.138 42.7359 49.9483 41.9256C50.8386 41.0353 51.1287 40.0949 51.1287 40.0949L63.1633 7.39258ZM62.8631 26.6398H70.6561L66.6446 15.4256L62.8631 26.6398Z" fill="#FCCF00"/>
<path d="M93.8048 7.39258H112.702C119.675 7.39258 126.637 9.87351 126.637 17.8965C126.637 25.9196 121.555 28.7606 117.194 30.7714C112.152 33.0923 105.499 34.903 105.499 34.903V41.0453C105.499 41.0453 105.559 41.4554 106.149 42.1657C106.74 42.876 107.39 43.056 107.39 43.056V45.8871H93.6948V43.1161C93.6948 43.1161 94.5251 42.936 95.1153 42.3458C95.7055 41.7556 95.8256 41.0453 95.8256 41.0453V13.2948C95.8256 13.2948 95.8856 12.1144 95.4154 11.6442C94.9452 11.174 93.8248 10.5238 93.8248 10.5238V7.39258H93.8048ZM105.609 13.1748V29.591C105.609 29.591 116.703 24.9892 116.703 18.4868C116.703 10.4537 105.609 13.1748 105.609 13.1748Z" fill="#FCCF00"/>
<path d="M167.553 13.8054L160.88 20.798C160.88 20.798 160.53 20.9781 160.23 20.9781C159.93 20.9781 159.52 20.688 159.52 20.688L158.689 19.9777C158.689 19.9777 158.449 19.9177 158.449 19.6876C158.449 19.4575 159.099 18.8573 159.099 17.7369C159.099 16.6164 158.859 11.9547 151.657 11.9547C144.454 11.9547 141.263 18.6872 141.263 24.2293C141.263 29.7714 144.684 39.9352 155.908 39.9352C162.441 39.9352 163.821 36.2739 163.821 36.2739H166.062V45.8375H153.777C139.132 45.8375 130.989 34.3832 130.989 26.12C130.989 13.4453 142.013 6.4126 152.007 6.4126C162.001 6.4126 167.533 13.8154 167.533 13.8154" fill="#FCCF00"/>
<path d="M191.472 46.9976C178.717 46.9976 169.553 37.684 169.553 26.3498C169.553 15.0155 178.957 6.22217 191.472 6.22217C203.986 6.22217 213.39 15.0055 213.39 26.3498C213.39 37.694 204.226 46.9976 191.472 46.9976ZM180.137 26.5298C180.137 37.8641 185.92 40.6952 191.472 40.6952C197.024 40.6952 202.926 37.1538 202.926 26.5298C202.926 15.9058 196.314 12.3545 191.472 12.3545C186.63 12.3545 180.137 15.1856 180.137 26.5298Z" fill="#FCCF00"/>
<path d="M219.102 7.41259H233.157L238.239 23.0985L243.671 7.39258H258.377V9.69345C258.377 9.69345 257.397 10.1036 256.956 10.6438C256.426 11.2941 256.426 11.7642 256.546 12.7146C256.666 13.6549 260.438 39.2846 260.558 40.225C260.678 41.1753 260.798 41.7055 261.028 42.3558C261.258 43.006 262.378 43.5362 262.378 43.5362V45.9171H248.273V43.3562C248.273 43.3562 249.514 43.1761 249.924 42.5859C250.334 41.9956 250.514 41.6355 250.394 40.6951C250.274 39.7548 246.913 18.2567 246.913 18.2567L240.77 37.2639H233.327L227.245 19.4371L224.174 40.4551C224.174 40.4551 224.054 41.7155 224.524 42.4058C225.174 43.3562 226.355 43.3562 226.355 43.3562V45.8971H214.13V43.1761C214.13 43.1761 215.101 43.026 215.811 42.2057C216.521 41.3754 216.641 40.315 216.641 40.315L221.103 12.5945C221.103 12.5945 221.373 11.5642 221.073 11.084C220.763 10.5838 219.092 10.1636 219.092 10.1636V7.41259H219.102Z" fill="#FCCF00"/>
</g>
<defs>
<clipPath id="clip0_1490_7904">
<rect width="267.921" height="53" fill="white" transform="translate(0.0394287)"/>
</clipPath>
</defs>
</svg>
