<svg width="167" height="32" viewBox="0 0 167 32" fill="none" xmlns="http://www.w3.org/2000/svg">
<g clip-path="url(#clip0_1490_7945)">
<path d="M10.436 0V9.36682H0.80603V31.9504H15.406V27.2967H5.79603V14.0602H10.436V22.6133H15.426V4.66357H20.046V22.6133H25.036V0H10.436Z" fill="#003D6C"/>
<path d="M46.796 11.1233C46.706 12.8994 46.126 14.229 45.096 15.1121C44.066 15.9952 42.596 16.4914 40.716 16.4914C39.736 16.4914 38.886 16.3624 38.126 16.0448C37.366 15.7769 36.696 15.3404 36.206 14.8045C35.666 14.229 35.266 13.5642 34.996 12.7208C34.726 11.8774 34.596 10.9447 34.596 9.88299V7.26345C34.596 6.20175 34.726 5.22934 35.046 4.42562C35.316 3.58221 35.766 2.91741 36.296 2.3419C36.836 1.7664 37.506 1.3695 38.256 1.05198C39.016 0.784073 39.866 0.605469 40.846 0.605469C42.766 0.605469 44.196 1.09167 45.226 2.02438C46.206 2.9571 46.786 4.3264 46.926 6.05291H43.356C43.356 5.5171 43.266 5.03089 43.176 4.68361C43.086 4.3264 42.956 4.0188 42.726 3.80051C42.546 3.58221 42.276 3.4433 41.966 3.31431C41.656 3.225 41.256 3.18531 40.806 3.18531C40.316 3.18531 39.916 3.27462 39.596 3.40361C39.286 3.5326 38.976 3.76082 38.796 4.06841C38.576 4.37601 38.436 4.78283 38.346 5.30872C38.256 5.84454 38.216 6.45973 38.216 7.17415V9.83338C38.216 10.5379 38.256 11.163 38.346 11.6988C38.436 12.185 38.566 12.6315 38.746 12.9391C38.926 13.2467 39.196 13.5146 39.546 13.6436C39.856 13.7726 40.306 13.8619 40.796 13.8619C41.246 13.8619 41.596 13.8222 41.916 13.7329C42.226 13.6436 42.496 13.5146 42.676 13.2864C42.856 13.0681 43.036 12.8002 43.126 12.443C43.216 12.0858 43.306 11.6492 43.306 11.0638H46.786V11.1134L46.796 11.1233Z" fill="#231815"/>
<path d="M52.116 5.80465C52.476 5.40775 52.876 5.10015 53.326 4.92155C53.776 4.70326 54.266 4.61395 54.846 4.61395C55.386 4.61395 55.876 4.70326 56.316 4.83225C56.766 5.01085 57.166 5.22915 57.476 5.58636C57.786 5.94357 58.056 6.38016 58.236 6.95566C58.416 7.53116 58.506 8.19597 58.506 9.03938V16.2629H55.066V8.98977C55.066 8.63256 55.026 8.32496 54.976 8.05705C54.936 7.78915 54.796 7.61054 54.706 7.48155C54.576 7.35256 54.436 7.21364 54.216 7.17395C54.036 7.12434 53.816 7.08465 53.546 7.08465C53.186 7.08465 52.926 7.17395 52.696 7.30295C52.476 7.43194 52.246 7.61054 52.116 7.83876V16.2629H48.716V0H52.116V5.80465Z" fill="#231815"/>
<path d="M67.386 15.2013C67.026 15.5982 66.626 15.9058 66.176 16.134C65.686 16.3523 65.146 16.4416 64.526 16.4416C63.986 16.4416 63.496 16.3523 63.056 16.2233C62.606 16.0447 62.206 15.8264 61.896 15.4692C61.586 15.112 61.316 14.6754 61.136 14.1396C60.956 13.6038 60.866 12.939 60.866 12.1948V4.79264H64.256V12.2345C64.256 12.8596 64.386 13.2962 64.616 13.5641C64.836 13.832 65.156 13.961 65.556 13.961C65.956 13.961 66.316 13.8717 66.586 13.7427C66.856 13.5641 67.076 13.3855 67.256 13.0779V4.78271H70.696V16.263H67.476L67.386 15.2013Z" fill="#231815"/>
<path d="M72.746 10.1505C72.746 9.26741 72.876 8.46369 73.106 7.7592C73.376 7.0547 73.726 6.46927 74.176 6.03268C74.626 5.54648 75.206 5.18927 75.826 4.97098C76.456 4.70307 77.216 4.61377 78.016 4.61377C78.816 4.61377 79.576 4.75268 80.206 4.97098C80.876 5.18927 81.416 5.58617 81.856 6.03268C82.306 6.51889 82.656 7.09439 82.926 7.7592C83.196 8.46369 83.286 9.26741 83.286 10.1505V10.9046C83.286 11.7877 83.156 12.5914 82.926 13.2959C82.696 14.0004 82.346 14.5859 81.856 15.0225C81.406 15.5087 80.826 15.8659 80.206 16.0842C79.536 16.3025 78.816 16.4414 78.016 16.4414C77.216 16.4414 76.456 16.3124 75.826 16.0842C75.156 15.8659 74.616 15.5087 74.176 15.0225C73.726 14.5363 73.376 13.9607 73.106 13.2959C72.836 12.5914 72.746 11.8373 72.746 10.9046V10.1505ZM76.146 10.9046C76.146 11.9663 76.326 12.77 76.636 13.2562C76.946 13.7425 77.436 14.0104 78.016 14.0104C78.636 14.0104 79.086 13.7425 79.406 13.2562C79.716 12.77 79.896 11.9762 79.896 10.9046V10.1505C79.896 9.08881 79.716 8.3347 79.406 7.8485C79.096 7.3623 78.606 7.09439 78.016 7.09439C77.426 7.09439 76.986 7.3623 76.676 7.8485C76.366 8.3347 76.186 9.13842 76.186 10.1505V10.9046H76.146Z" fill="#231815"/>
<path d="M103.566 16.2628H100.036L94.8561 6.1121V16.2231H91.326V0.843262H94.8561L100.036 10.9443V0.843262H103.566V16.2628Z" fill="#231815"/>
<path d="M106.246 1.81597C106.246 1.59768 106.296 1.36946 106.376 1.19086C106.466 1.01225 106.596 0.833648 106.736 0.704656C106.916 0.575663 107.096 0.436749 107.316 0.397059C107.536 0.307756 107.806 0.268066 108.076 0.268066C108.346 0.268066 108.616 0.317679 108.836 0.397059C109.056 0.486361 109.286 0.575663 109.416 0.704656C109.596 0.833648 109.686 1.01225 109.776 1.19086C109.866 1.36946 109.906 1.58776 109.906 1.81597C109.906 2.04419 109.866 2.26249 109.776 2.43117C109.686 2.60977 109.556 2.78838 109.416 2.91737C109.236 3.04636 109.056 3.18528 108.836 3.27458C108.616 3.36388 108.346 3.40357 108.076 3.40357C107.806 3.40357 107.536 3.35396 107.316 3.27458C107.096 3.18528 106.866 3.09597 106.736 2.91737C106.556 2.78838 106.466 2.60977 106.376 2.43117C106.286 2.25256 106.246 2.03427 106.246 1.81597ZM109.866 16.2631H106.426V4.7828H109.866V16.2631Z" fill="#231815"/>
<path d="M116.476 1.95459V4.79242H118.216V7.05475H116.476V12.7304C116.476 12.9487 116.476 13.1769 116.516 13.3059C116.556 13.4845 116.606 13.5738 116.696 13.6631C116.786 13.7524 116.876 13.7921 117.006 13.8417C117.136 13.8913 117.276 13.8913 117.496 13.8913H117.946C118.076 13.8913 118.216 13.8417 118.306 13.8417L118.266 16.1933C117.996 16.2827 117.726 16.3223 117.416 16.4116C117.106 16.4513 116.746 16.5009 116.346 16.5009C115.856 16.5009 115.366 16.4613 114.956 16.3223C114.556 16.1933 114.196 16.0147 113.886 15.7468C113.576 15.4789 113.346 15.1316 113.216 14.6851C113.036 14.2386 112.996 13.7524 112.996 13.1372V7.06467H111.476V4.80234H112.996V1.95459H116.476Z" fill="#231815"/>
<path d="M124.066 1.95459V4.79242H125.806V7.05475H124.066V12.7304C124.066 12.9487 124.066 13.1769 124.106 13.3059C124.146 13.4845 124.196 13.5738 124.286 13.6631C124.376 13.7524 124.466 13.7921 124.596 13.8417C124.726 13.8913 124.866 13.8913 125.086 13.8913H125.536C125.666 13.8913 125.806 13.8417 125.896 13.8417L125.856 16.1933C125.586 16.2827 125.316 16.3223 125.006 16.4116C124.696 16.4513 124.336 16.5009 123.976 16.5009C123.486 16.5009 122.996 16.4613 122.586 16.3223C122.186 16.1933 121.826 16.0147 121.516 15.7468C121.206 15.4789 120.976 15.1316 120.846 14.6851C120.666 14.2386 120.626 13.7524 120.626 13.1372V7.06467H119.106V4.80234H120.626V1.95459H124.066Z" fill="#231815"/>
<path d="M126.926 10.1505C126.926 9.26741 127.056 8.46369 127.286 7.7592C127.556 7.0547 127.906 6.46927 128.356 6.03268C128.806 5.54648 129.386 5.18927 130.006 4.97098C130.676 4.70307 131.386 4.61377 132.196 4.61377C133.006 4.61377 133.756 4.75268 134.386 4.97098C135.056 5.18927 135.596 5.58617 136.036 6.03268C136.486 6.51889 136.836 7.09439 137.106 7.7592C137.376 8.46369 137.466 9.26741 137.466 10.1505V10.9046C137.466 11.7877 137.336 12.5914 137.106 13.2959C136.886 14.0004 136.526 14.5859 136.036 15.0225C135.586 15.5087 135.006 15.8659 134.386 16.0842C133.716 16.3025 132.996 16.4414 132.196 16.4414C131.396 16.4414 130.636 16.3124 130.006 16.0842C129.336 15.8659 128.796 15.5087 128.356 15.0225C127.906 14.5363 127.556 13.9607 127.286 13.2959C127.016 12.5914 126.926 11.8373 126.926 10.9046V10.1505ZM130.366 10.9046C130.366 11.9663 130.546 12.77 130.856 13.2562C131.166 13.7425 131.656 14.0104 132.236 14.0104C132.856 14.0104 133.306 13.7425 133.626 13.2562C133.936 12.77 134.116 11.9762 134.116 10.9046V10.1505C134.116 9.08881 133.936 8.3347 133.626 7.8485C133.316 7.3623 132.826 7.09439 132.236 7.09439C131.646 7.09439 131.206 7.3623 130.896 7.8485C130.586 8.3347 130.406 9.13842 130.406 10.1505V10.9046H130.366Z" fill="#231815"/>
<path d="M144.346 13.9607C144.836 13.9607 145.196 13.8318 145.466 13.5638C145.736 13.2959 145.866 12.8594 145.866 12.2342H149.086C149.086 12.899 148.956 13.4745 148.726 14.0104C148.506 14.5462 148.146 14.9828 147.746 15.34C147.346 15.6972 146.856 15.9552 146.276 16.1834C145.696 16.362 145.116 16.4513 144.446 16.4513C143.556 16.4513 142.796 16.3223 142.166 16.0941C141.496 15.8262 140.956 15.4789 140.556 15.0324C140.106 14.5462 139.796 13.9707 139.576 13.3059C139.356 12.6411 139.266 11.8473 139.266 10.9542V10.1108C139.266 9.22772 139.356 8.47361 139.576 7.7592C139.796 7.0547 140.116 6.4792 140.516 6.03268C140.966 5.54648 141.496 5.18927 142.126 4.97098C142.796 4.70307 143.556 4.61377 144.406 4.61377C145.116 4.61377 145.746 4.70307 146.326 4.92137C146.906 5.09997 147.396 5.40757 147.796 5.76478C148.196 6.16168 148.506 6.60819 148.736 7.18369C148.956 7.7592 149.096 8.38431 149.096 9.1285H145.876C145.876 8.5133 145.746 7.97749 145.516 7.66989C145.296 7.31268 144.896 7.13408 144.356 7.13408C143.996 7.13408 143.686 7.22338 143.466 7.35237C143.246 7.48137 143.066 7.65997 142.976 7.92788C142.846 8.19578 142.796 8.50338 142.756 8.90028C142.706 9.29718 142.706 9.69408 142.706 10.2299V11.0733C142.706 11.5595 142.706 12.006 142.756 12.4029C142.796 12.7998 142.846 13.1074 142.976 13.3356C143.106 13.6035 143.246 13.7821 143.466 13.9111C143.646 13.9111 143.956 13.9607 144.356 13.9607" fill="#231815"/>
<path d="M154.306 5.80465C154.666 5.40775 155.066 5.10015 155.516 4.92155C155.966 4.70326 156.456 4.61395 157.036 4.61395C157.576 4.61395 158.066 4.70326 158.506 4.83225C158.956 5.01085 159.356 5.22915 159.666 5.58636C159.976 5.94357 160.246 6.38016 160.426 6.95566C160.606 7.53116 160.696 8.19597 160.696 9.03938V16.2629H157.256V8.98977C157.256 8.63256 157.216 8.32496 157.166 8.05705C157.126 7.78915 156.986 7.61054 156.896 7.48155C156.766 7.35256 156.626 7.21364 156.406 7.17395C156.226 7.12434 156.006 7.08465 155.736 7.08465C155.376 7.08465 155.116 7.17395 154.886 7.30295C154.666 7.43194 154.436 7.61054 154.306 7.83876V16.2629H150.906V0H154.306V5.80465Z" fill="#231815"/>
<path d="M163.146 1.81597C163.146 1.59768 163.186 1.36946 163.276 1.19086C163.366 1.01225 163.496 0.833648 163.636 0.704656C163.816 0.575663 163.996 0.436749 164.216 0.397059C164.436 0.307756 164.706 0.268066 164.976 0.268066C165.246 0.268066 165.516 0.317679 165.736 0.397059C165.956 0.486361 166.136 0.575663 166.316 0.704656C166.496 0.833648 166.586 1.01225 166.676 1.19086C166.766 1.36946 166.806 1.58776 166.806 1.81597C166.806 2.04419 166.766 2.26249 166.676 2.43117C166.586 2.60977 166.456 2.78838 166.316 2.91737C166.136 3.04636 165.956 3.18528 165.736 3.27458C165.516 3.36388 165.246 3.40357 164.976 3.40357C164.706 3.40357 164.436 3.35396 164.216 3.27458C163.996 3.18528 163.766 3.09597 163.636 2.91737C163.456 2.78838 163.366 2.60977 163.276 2.43117C163.186 2.25256 163.146 2.03427 163.146 1.81597ZM166.716 16.2631H163.276V4.7828H166.716V16.2631Z" fill="#231815"/>
<path d="M39.066 25.0839V23.5757H37.996V25.0839H34.556V29.8268H37.996V31.9503H39.066V29.8268H42.506V25.0839H39.066ZM35.626 26.0563H37.996V28.8941H35.626V26.0563ZM39.066 26.0563H41.436V28.8941H39.066V26.0563Z" fill="#231815"/>
<path d="M68.906 26.0563H71.766V25.0839H68.056V23.5757H66.986V25.0839H63.276V26.0563H66.136C65.416 27.7828 64.526 28.8048 63.006 29.6879V30.8389C64.836 29.9062 66.046 28.6659 66.936 26.8104V29.8268H65.106V30.7596H66.936V31.9602H68.006V30.7596H69.836V29.8268H68.006V26.8104C68.896 28.6758 70.106 29.9161 71.936 30.8389V29.6879C70.506 28.8048 69.566 27.7828 68.896 26.0563" fill="#231815"/>
<path d="M77.836 27.0783H81.096V26.1059H77.836V23.5757H76.766V26.1059H73.466V27.0783H76.766V30.7099H73.056V31.6923H81.506V30.7099H77.836V27.0783Z" fill="#231815"/>
<path d="M54.386 31.7716H61.396V24.0122H54.386V31.7716ZM60.326 27.3362H55.456V24.9846H60.326V27.3362ZM60.326 30.7893H55.456V28.3086H60.326V30.7893Z" fill="#231815"/>
<path d="M94.586 30.2733C94.946 29.4299 95.126 28.4972 95.126 27.6538V26.7211H94.096L95.166 24.1016H92.616V25.0343H93.736L92.616 27.6538H94.226C94.226 28.2293 94.136 28.7651 94.006 29.2513C93.876 28.8941 93.786 28.5468 93.696 28.1896H92.666C92.846 28.9437 93.066 29.7375 93.556 30.4519C93.286 30.9382 92.976 31.4244 92.666 31.8213H93.786C93.966 31.603 94.096 31.3747 94.236 31.1564C94.776 31.5533 95.446 31.8213 96.336 31.8213H101.116V30.9382H96.336C95.536 30.9382 94.996 30.6702 94.596 30.2733" fill="#231815"/>
<path d="M97.586 25.4411H95.176V26.1952H97.586V26.7707H95.576V27.5248H97.586V28.0606H95.446V28.8148H97.586V29.3506H95.176V30.1047H97.586V30.6405H98.616V30.1047H101.026V29.3506H98.616V28.8148H100.806V28.0606H98.616V27.5248H100.626V26.1952H101.026V25.4411H100.626V24.1115H98.616V23.5757H97.586V24.1115H95.576V24.8656H97.586V25.4411ZM99.686 26.7707H98.616V26.1952H99.686V26.7707ZM99.686 25.4411H98.616V24.8656H99.686V25.4411Z" fill="#231815"/>
<path d="M49.256 28.805H52.466V27.8326H51.666V24.5979H48.806V23.6255H47.736V24.5979H44.926V27.8326H44.076V28.805H47.296C46.756 29.956 45.326 30.978 43.946 31.0673V32.0001C45.556 31.8711 47.476 30.7994 48.276 29.2515C49.036 30.7994 50.996 31.9108 52.606 32.0001V31.0673C51.216 30.9384 49.796 29.956 49.256 28.805ZM50.596 27.8326H48.806V25.5306H50.596V27.8326ZM45.946 25.5306H47.686V27.8326H45.946V25.5306Z" fill="#231815"/>
<path d="M107.096 24.7268C107.096 24.3696 107.136 23.9727 107.136 23.5758H106.196C106.196 24.8657 106.156 26.503 105.486 27.0785V27.9616C105.356 28.0509 105.266 28.1005 105.126 28.1402V26.1457H105.746V25.1733H105.126V23.5361H104.056V25.1733H103.656V23.9727H102.716C102.716 25.2626 102.756 26.5923 102.266 27.0785V28.0509C103.116 27.6937 103.476 27.0288 103.556 26.1457H104.006V28.5371C103.516 28.6661 102.976 28.7554 102.446 28.8447V29.8171C103.026 29.7278 103.566 29.6881 104.006 29.5492V31.9008H105.076V29.2019C105.296 29.1126 105.476 28.9836 105.696 28.8447V27.9616C106.456 27.4754 106.816 26.6716 106.946 25.6992H107.526C107.256 27.4257 106.456 28.7554 105.386 29.5591V30.6208C107.086 29.5591 108.066 28.2295 108.516 25.6992H109.186C108.736 28.3981 107.716 29.9957 106.106 30.9681V31.9405C108.116 31.0971 109.236 29.4102 109.856 27.1082V30.7895C109.856 30.8788 109.766 30.9681 109.676 30.9681H108.376V31.9405H109.846C110.476 31.9405 110.826 31.6329 110.826 30.9681V24.7169H107.076L107.096 24.7268Z" fill="#231815"/>
<path d="M87.306 30.8888C87.216 30.8888 87.126 30.7995 87.126 30.7102V26.6817L88.016 26.5031V30.0057H89.086V26.2848L89.976 26.1062V30.0057H91.046V24.9552L89.076 25.3124V23.5859H88.006V25.491L87.116 25.6696V24.0721H86.046V25.8482L85.466 25.9375V25.491H84.576V23.4966H83.546V25.491H82.656V26.4634H83.546V30.2736L82.696 30.4522V31.4246L85.466 30.8888V29.9164L84.576 30.095V26.5031H85.466V26.9496L86.046 26.8603V30.8888C86.046 31.5536 86.356 31.8612 87.026 31.8612H91.136V30.8888H87.296H87.306Z" fill="#231815"/>
<path d="M138.316 27.0786H130.676V28.2296H138.316V27.0786Z" fill="#231815"/>
<path d="M128.446 26.5925C128.226 28.3686 127.866 29.6486 126.076 30.363V23.8936H124.866V31.8712C127.146 31.514 129.336 30.5416 129.516 26.6421H128.446V26.5925Z" fill="#231815"/>
<path d="M122.416 27.4359C122.416 28.9838 121.876 30.0951 121.126 30.6309V31.8315C122.156 31.2957 123.676 30.1447 123.676 27.2176V23.8936H122.426V27.4359H122.416Z" fill="#231815"/>
<path d="M146.356 23.3971C145.816 23.3971 145.416 23.7047 145.236 24.1909H138.626V25.2526H144.386C144.076 28.2691 142.426 30.2139 139.656 30.839V31.8114C142.386 31.4542 145.106 29.5491 145.636 25.5205C145.816 25.6495 146.086 25.7388 146.356 25.7388C147.026 25.7388 147.566 25.203 147.566 24.5382C147.566 23.9131 147.026 23.3872 146.356 23.3872M146.356 25.1633C145.996 25.1633 145.736 24.8954 145.736 24.5481C145.736 24.2009 146.006 23.923 146.356 23.923C146.706 23.923 146.976 24.1909 146.976 24.5481C146.976 24.9053 146.706 25.1633 146.356 25.1633Z" fill="#231815"/>
<path d="M121.206 23.5757H120.446V25.2129H121.206V23.5757Z" fill="#231815"/>
<path d="M119.916 23.5757H119.156V25.2129H118.796V24.1512H113.796C113.576 25.3022 113.306 26.2349 112.236 26.8997V27.9614C113.526 27.5149 114.376 26.3639 114.826 25.1732H118.126C117.856 28.1896 116.426 30.1344 113.656 30.7596V31.732C116.466 31.3351 119.016 29.3803 119.376 25.1236H119.916V23.5757Z" fill="#231815"/>
</g>
<defs>
<clipPath id="clip0_1490_7945">
<rect width="166.01" height="32" fill="white" transform="translate(0.80603)"/>
</clipPath>
</defs>
</svg>
