<svg width="186" height="45" viewBox="0 0 186 45" fill="none" xmlns="http://www.w3.org/2000/svg">
<g clip-path="url(#clip0_3513_181368)">
<path d="M185.737 0H0.623047V45H185.737V0Z" fill="#004EA2"/>
<path d="M176.937 31.522H177.721C178.042 31.522 178.21 31.6543 178.21 31.9559C178.21 32.2787 178.042 32.4163 177.721 32.4163H176.937V31.522ZM176.219 34.1467H176.937V32.9084H177.65C178.015 32.9084 178.145 33.0566 178.194 33.39C178.232 33.644 178.221 33.9562 178.308 34.1467H179.021C178.891 33.9773 178.902 33.6016 178.891 33.3952C178.869 33.0777 178.766 32.7391 178.417 32.6491C178.776 32.5063 178.934 32.2205 178.934 31.8501C178.934 31.3686 178.564 30.9717 177.976 30.9717H176.224V34.1414L176.219 34.1467Z" fill="white"/>
<path d="M174.847 32.6017C174.847 34.0304 176.044 35.1946 177.519 35.1946C178.994 35.1946 180.186 34.0251 180.186 32.6017C180.186 31.1782 178.988 30.0088 177.519 30.0088C176.05 30.0088 174.847 31.1729 174.847 32.6017ZM175.201 32.6017C175.201 31.3634 176.24 30.358 177.519 30.358C178.798 30.358 179.827 31.3634 179.827 32.6017C179.827 33.8399 178.793 34.8453 177.519 34.8453C176.246 34.8453 175.201 33.8399 175.201 32.6017Z" fill="white"/>
<path d="M58.6125 19.9653H52.2617V34.7925H58.6125V19.9653Z" fill="white"/>
<path d="M68.0487 35.2368C63.2652 35.2368 60.9633 33.6176 60.8218 30.1463H66.5032C66.5522 30.9083 66.6991 31.4163 66.9657 31.7338C67.2705 32.0989 67.6841 32.2735 68.2718 32.2735C69.3221 32.2735 69.8772 31.7443 69.8772 30.7442C69.8772 30.0246 69.4636 29.5748 68.6528 29.4054C68.2337 29.3102 67.695 29.1938 65.6434 28.7599C62.1333 28.019 61.0068 26.9607 61.0068 24.3837C61.0068 21.2775 63.5047 19.4995 67.8691 19.4995C72.6852 19.4995 74.9328 20.96 75.1178 24.2249H69.7847C69.7629 23.5529 69.6432 23.1402 69.3874 22.8703C69.1316 22.5951 68.7562 22.4681 68.2065 22.4681C67.0855 22.4681 66.5141 22.9232 66.5141 23.8122C66.5141 24.7012 67.0474 25.0451 68.7888 25.3044C74.0947 26.0982 75.5477 27.1195 75.5477 30.0457C75.5477 33.5382 73.0934 35.2315 68.0378 35.2315" fill="white"/>
<path d="M81.866 34.7924C78.9818 34.7924 77.1914 33.0938 77.1914 30.358C77.1914 27.0137 79.4008 25.7067 85.0714 25.7067H86.1162V23.9022C86.1162 22.9656 85.5775 22.4682 84.5653 22.4682C83.5531 22.4682 83.0959 22.9127 82.9762 24.0504H77.7955C78.0676 20.9495 80.3151 19.5049 84.8428 19.5049C89.7787 19.5049 91.7976 21.0077 91.7976 24.696V34.7924H81.8606H81.866ZM84.9625 28.1249C82.9599 28.1249 82.5354 29.2044 82.5354 30.1093C82.5354 31.2364 83.2157 31.9137 84.3476 31.9137C86.1217 31.9137 86.1217 30.194 86.1217 29.6278V28.1249H84.9625Z" fill="white"/>
<path d="M111.867 34.7925V25.4316C111.867 24.7807 111.867 23.5636 110.822 23.5636C109.603 23.5636 109.603 25.0135 109.603 25.4898V34.7925H103.253V25.4316C103.253 24.8707 103.253 23.5636 102.159 23.5636C101.174 23.5636 101.038 24.5373 101.038 25.4898V34.7925H94.6816V19.9653H100.891L101.054 22.2778H101.462L101.528 22.1561C102.491 20.3252 103.737 19.5103 105.576 19.5103C107.557 19.5103 108.624 20.2246 109.522 22.1455L109.718 22.5635L109.935 22.1561C110.882 20.3516 112.21 19.5103 114.109 19.5103C116.999 19.5103 118.229 21.1083 118.229 24.8495V34.7925H111.873H111.867Z" fill="white"/>
<path d="M127.437 19.9653H121.075V34.7925H127.437V19.9653Z" fill="white"/>
<path d="M148.41 35.2368C143.622 35.2368 141.32 33.6176 141.189 30.1463H146.87C146.919 30.9188 147.066 31.4163 147.344 31.739C147.643 32.1042 148.057 32.2735 148.644 32.2735C149.695 32.2735 150.25 31.7443 150.25 30.7442C150.25 30.0246 149.836 29.5748 149.025 29.4054L148.987 29.3949C148.568 29.2996 147.997 29.1779 146.016 28.7599C142.511 28.0243 141.39 26.9607 141.39 24.3837C141.39 21.2775 143.888 19.4995 148.253 19.4995C153.063 19.4995 155.311 20.96 155.501 24.2249H150.168C150.146 23.5635 150.021 23.1402 149.776 22.8703C149.515 22.5951 149.14 22.4628 148.59 22.4628C147.469 22.4628 146.898 22.9179 146.898 23.8069C146.898 24.6959 147.431 25.0398 149.178 25.2991C154.478 26.0929 155.931 27.1142 155.931 30.0404C155.931 33.5329 153.471 35.2262 148.421 35.2262" fill="white"/>
<path d="M135.214 35.2371C131.938 35.2371 130.349 33.9089 130.349 31.1732V17.96H136.699V19.9602H139.769V24.0136H136.699V28.9189C136.699 29.7973 136.863 30.6969 138.082 30.6969C138.512 30.6969 138.99 30.6969 139.524 30.5805V34.6233C137.722 35.0413 136.313 35.2424 135.219 35.2424" fill="white"/>
<path d="M167.996 35.237H162.619H162.44C159.458 35.1629 157.945 33.369 157.945 29.8977V19.9653H164.301V29.1992C164.301 30.5274 164.862 30.9719 165.33 31.1148L165.395 31.136L165.46 31.1148C165.934 30.9772 166.5 30.5274 166.5 29.1992V19.9653H172.861V29.8977C172.861 33.4431 171.289 35.237 168.187 35.237H167.996Z" fill="white"/>
<path d="M42.7164 9.76318V21.0978C41.209 22.1562 39.6254 23.1193 37.9819 23.9765C35.4786 22.4472 32.7522 21.2301 29.8625 20.3782V9.76318H23.1961V19.1241C22.2003 19.0394 21.1935 18.9918 20.1758 18.9918C18.9405 18.9918 17.7215 19.0553 16.5243 19.1823C14.2876 19.4204 12.1544 19.9866 10.179 20.8386C8.94908 21.3571 7.8879 22.1509 7.0444 23.1457C6.50565 23.786 6.18457 24.6009 6.18457 25.4952C6.18457 26.2731 6.41313 27.0192 6.84305 27.6171C7.24031 28.1463 7.70288 28.6278 8.21986 29.0512C8.94364 29.5645 9.67831 29.9666 10.5273 30.3C12.9217 31.2049 15.4305 31.607 18.1569 31.607C19.882 31.607 21.5799 31.4694 23.207 31.1625V34.7979H29.8734V29.2787C32.0448 28.4691 34.1562 27.506 36.1425 26.3736C38.9288 28.7548 41.1764 31.7076 42.6348 34.8085H48.9094L49.4046 34.8032V9.76318H42.7273H42.7164ZM19.2562 28.6543C18.0535 28.6702 16.8726 28.5802 15.7134 28.432L15.7026 28.4215C14.3366 28.2363 13.085 27.6965 12.0564 26.9028C11.5884 26.5112 11.2891 25.9291 11.2891 25.2835C11.2891 24.675 11.5449 24.1035 11.9585 23.7119C12.5517 23.114 13.4333 22.5689 14.3257 22.2091C16.5678 21.3413 19.0276 21.0344 21.5908 21.0344C22.1295 21.0344 22.6628 21.0555 23.1907 21.0978C23.1907 21.0978 23.1907 21.0978 23.1961 21.0978V28.3368C21.9227 28.485 20.6221 28.6331 19.2562 28.649M29.8625 27.2785V22.4049C31.6529 23.1404 33.4379 24.204 35.0052 25.3894C33.3671 26.0826 31.5985 26.7916 29.8625 27.2838M38.9397 24.5797C40.2567 23.6802 41.5138 22.7118 42.7164 21.6746V27.4743C41.5301 26.4265 40.273 25.4582 38.9397 24.5797Z" fill="white"/>
<path d="M8.21519 29.0515C8.21519 29.0515 8.2094 29.0515 8.20361 29.0459H8.21519V29.0515Z" fill="white"/>
</g>
<defs>
<clipPath id="clip0_3513_181368">
<rect width="185.114" height="45" fill="white" transform="translate(0.623047)"/>
</clipPath>
</defs>
</svg>
