<svg width="154" height="53" viewBox="0 0 154 53" fill="none" xmlns="http://www.w3.org/2000/svg">
<g clip-path="url(#clip0_3513_181382)">
<path d="M28.8589 27.3822C31.9332 20.4765 36.6914 8.90183 36.6914 8.90183H24.0132C24.0132 8.90183 17.5247 24.0193 15.7996 28.0352C15.125 29.6036 14.1054 30.4571 12.8747 30.2669C11.8242 30.2 11.1084 29.223 11.8448 27.4028L15.0941 19.5509H4.34185C4.34185 19.5509 2.5704 23.1555 1.65893 25.5465C-1.16818 32.9407 0.489973 40.1755 9.87248 41.1165C13.8737 41.5176 17.293 40.5406 20.1098 38.8437C17.0098 43.559 14.4195 48.4182 12.4524 53.2671C27.3501 29.8864 49.9824 10.4084 67.2283 -0.26123C53.1649 5.09674 39.4979 15.2779 28.8641 27.3873L28.8589 27.3822Z" fill="#E60020"/>
<path d="M52.9743 28.5696L55.0908 23.6487H56.9189C58.3865 23.6487 59.6739 24.2709 58.8808 26.1323C58.0518 28.0914 56.0743 28.5696 54.6067 28.5696H52.9691H52.9743ZM51.1771 32.8272H54.4471C56.4657 32.8272 58.6749 32.5238 60.8583 31.2074C62.949 29.9528 64.5196 28.0605 65.3641 26.0757C66.3271 23.8184 66.049 21.741 64.5814 20.5789C63.2168 19.5402 60.951 19.4785 58.9014 19.4785H50.3377L41.4238 40.4271H47.938L51.172 32.822L51.1771 32.8272Z" fill="#4D4D4D"/>
<path d="M77.919 23.4123C80.7615 23.4123 79.2115 27.8447 78.2795 30.0558C77.3628 32.2411 75.3906 36.437 72.4502 36.437C69.5097 36.437 71.0598 32.236 71.9764 30.0558C72.9033 27.8447 75.0713 23.4123 77.9138 23.4123H77.919ZM79.6801 19.1753C73.2844 19.1753 67.7332 23.7568 65.112 30.0146C62.6196 35.9691 64.2984 40.7357 70.6581 40.7357C77.0178 40.7357 82.6823 35.9742 85.1747 30.0146C87.7907 23.7517 86.0707 19.1753 79.675 19.1753H79.6801Z" fill="#4D4D4D"/>
<path d="M102.822 40.4324H97.4101L99.3308 28.8886H99.2691L91.7198 40.4324H86.0913L89.2531 19.4839H95.309L93.5788 29.6805H93.6406L99.7943 19.4839H106.164L104.619 29.6805H104.681L111.463 19.4839H117.148L102.822 40.4324Z" fill="#4D4D4D"/>
<path d="M125.799 40.4324H110.047L118.806 19.4839H134.559L132.653 23.8495H123.204L121.798 27.6185H129.445L127.736 31.5779H120.089L118.214 35.9949H127.669L125.805 40.4324H125.799Z" fill="#4D4D4D"/>
<path d="M152.376 20.7642C151.259 19.7256 149.343 19.4839 147.51 19.4839H136.835L127.911 40.4324H134.425L135.022 39.0389L141.454 23.7158H144.055C144.667 23.7158 145.337 23.7158 145.774 23.9883C146.274 24.3225 146.65 25.1195 146.166 26.3022C145.419 28.1122 143.164 28.6264 141.758 28.6264H140.512L140.058 40.4221H146.547L146.053 31.7013C149.575 30.4209 151.645 28.5235 152.814 25.7777C153.689 23.7312 153.653 21.8698 152.381 20.7694L152.376 20.7642Z" fill="#4D4D4D"/>
</g>
<defs>
<clipPath id="clip0_3513_181382">
<rect width="152.64" height="53" fill="white" transform="translate(0.736816)"/>
</clipPath>
</defs>
</svg>
