<svg width="139" height="36" viewBox="0 0 139 36" fill="none" xmlns="http://www.w3.org/2000/svg">
<g clip-path="url(#clip0_1490_7997)">
<path d="M20.1898 0L20.9598 3.93688L24.7698 2.63123L21.7298 5.27243L24.7698 7.90365L20.9598 6.59801L20.1898 10.5349L19.4198 6.59801L15.6198 7.90365L18.6498 5.27243L15.6198 2.63123L19.4198 3.93688L20.1898 0Z" fill="#E50012"/>
<path d="M8.01978 25.7841C7.46978 25.7841 7.02979 25.3456 7.02979 24.7974C7.02979 24.2493 7.46978 23.8107 8.01978 23.8107C9.52978 23.8107 10.9898 23.5117 12.3698 22.9336C13.6998 22.3755 14.8998 21.5682 15.9198 20.5416C16.9498 19.515 17.7498 18.329 18.3198 17.0034C18.8998 15.628 19.1998 14.1728 19.1998 12.6679C19.1998 12.1197 19.6398 11.6812 20.1898 11.6812C20.7398 11.6812 21.1798 12.1197 21.1798 12.6679C21.1798 14.4419 20.8298 16.1562 20.1498 17.7709C19.4898 19.3356 18.5398 20.731 17.3298 21.937C16.1198 23.1429 14.7098 24.0898 13.1498 24.7476C11.5298 25.4353 9.79979 25.7742 8.02979 25.7742" fill="#E50012"/>
<path d="M3.00976 24.3687C1.61976 24.3687 0.499756 25.4849 0.499756 26.8703C0.499756 28.2457 1.61976 29.372 3.00976 29.372C4.39976 29.372 5.51976 28.2557 5.51976 26.8703C5.51976 25.4949 4.39976 24.3687 3.00976 24.3687Z" fill="#E50012"/>
<path d="M8.01978 29.9201C7.46978 29.9201 7.02979 29.4816 7.02979 28.9334C7.02979 28.3852 7.46978 27.9467 8.01978 27.9467C11.1898 27.9467 14.2298 26.9899 16.8098 25.1859C17.2598 24.8769 17.8798 24.9766 18.1898 25.4251C18.4998 25.8736 18.3898 26.4916 17.9498 26.8005C15.0298 28.8437 11.5998 29.9201 8.01978 29.9201Z" fill="#E50012"/>
<path d="M47.3798 29.92C44.1498 29.92 40.2998 29.1227 40.2998 25.3254C40.2998 21.0994 44.7298 20.023 49.3698 18.9965C49.7198 18.9167 49.8298 18.7772 49.8298 18.4283V16.5845C49.8298 15.5778 49.8298 13.2357 47.4098 13.2357C45.5298 13.2357 44.9598 14.8303 44.7798 15.3486C44.3598 16.4051 44.0998 16.9533 42.9598 16.9533C41.7298 16.9533 41.1798 16.136 41.1798 15.3187C41.1798 13.8038 43.0998 11.5513 48.3998 11.5513C50.0898 11.5513 51.3698 11.8104 52.2198 12.3187C53.7598 13.2855 53.8898 14.8403 53.8898 16.2157V26.2224C53.8898 26.94 53.8598 27.6775 53.4598 28.1858C53.0098 28.7938 51.1798 29.9101 47.3998 29.9101M49.0898 20.4317C47.0498 20.9898 44.5098 21.9666 44.5098 24.8171C44.5098 27.1692 46.0498 28.2357 47.4698 28.2357C49.8498 28.2357 49.8498 26.043 49.8498 25.3154V20.9599C49.8498 20.7606 49.8498 20.5612 49.7098 20.4416C49.5498 20.3121 49.2098 20.3918 49.0898 20.4217" fill="#231815"/>
<path d="M81.8598 29.92C78.6298 29.92 74.7798 29.1227 74.7798 25.3254C74.7798 21.0994 79.2098 20.023 83.8498 18.9965C84.1998 18.9167 84.3098 18.7772 84.3098 18.4283V16.5845C84.3098 15.5778 84.3098 13.2357 81.8898 13.2357C79.9998 13.2357 79.4398 14.8303 79.2598 15.3486C78.8498 16.4051 78.5798 16.9533 77.4398 16.9533C76.2098 16.9533 75.6498 16.136 75.6498 15.3187C75.6498 13.8038 77.5698 11.5513 82.8698 11.5513C84.5598 11.5513 85.8398 11.8104 86.6898 12.3187C88.2298 13.2855 88.3598 14.8403 88.3598 16.2157V26.2224C88.3598 26.94 88.3298 27.6775 87.9298 28.1858C87.4798 28.7938 85.6498 29.9101 81.8698 29.9101M83.5698 20.4317C81.5298 20.9898 78.9798 21.9666 78.9798 24.8171C78.9798 27.1692 80.5198 28.2357 81.9398 28.2357C84.3198 28.2357 84.3198 26.043 84.3198 25.3154V20.9599C84.3198 20.7606 84.3198 20.5612 84.1798 20.4416C84.0198 20.3121 83.6798 20.3918 83.5598 20.4217" fill="#231815"/>
<path d="M118.15 29.9202C115.43 29.9202 113.45 28.9534 112.1 27.0597C110.64 25.0165 110.34 22.4152 110.34 20.5913C110.34 17.5115 111.2 15.1295 112.89 13.5248C114.25 12.2291 116.12 11.5215 118.14 11.5215C123.56 11.5215 124.69 16.6643 124.69 18.0298C124.69 18.9966 124.33 19.0663 123.79 19.166L114.44 20.5016C114.14 20.5514 113.78 20.7109 113.86 21.279C113.93 21.6976 114.07 22.5547 114.5 23.372C115.42 25.156 117.16 26.2225 119.16 26.2225C121.16 26.2225 122.67 25.1062 123.34 24.4384C123.66 24.1195 124.11 23.5115 124.49 23.671C124.69 23.7507 124.77 23.97 124.75 24.3188C124.75 24.3786 124.07 29.9301 118.16 29.9301M117.2 13.5647C114.99 13.5647 113.5 15.3587 113.48 18.3288C113.48 18.5281 113.51 18.7374 113.66 18.857C113.8 18.9766 114.03 18.9766 114.22 18.9567L119.88 18.1693C120.34 18.0896 120.49 17.8404 120.46 17.4517C120.17 13.9534 118.1 13.5746 117.21 13.5746" fill="#231815"/>
<path d="M70.4197 13.3553C68.4697 11.5513 65.5697 11.5513 64.6097 11.5513C60.8697 11.5513 58.3297 12.7174 57.8597 13.3154L57.8397 13.3353C57.6097 13.6044 57.5997 14.0131 57.5997 14.9898V35.5214C57.5997 35.7805 57.8097 35.9898 58.0797 35.9898H61.4597C61.7197 35.9898 61.9297 35.7805 61.9297 35.5214V29.641C61.9297 29.4616 61.9797 29.3121 62.0997 29.2323C62.2997 29.1127 62.5097 29.2124 62.6997 29.2921C63.4897 29.6011 64.2997 29.9101 65.4397 29.9101C70.4997 29.9101 72.8097 24.7373 72.8097 19.9333C72.8097 17.2323 71.8897 14.7107 70.4197 13.3453M64.3597 27.5778C64.1297 27.5778 63.2797 27.538 62.3097 27.0297C62.0797 26.92 61.9397 26.7406 61.9397 26.342V16.0363C61.9797 15.2091 62.0397 13.4749 64.1397 13.4749C65.4397 13.4749 66.6197 14.322 67.3597 15.8071C68.1597 17.4416 68.2597 19.2955 68.2597 20.7307C68.2597 25.0264 66.7997 27.5878 64.3597 27.5878" fill="#231815"/>
<path d="M36.9797 5.2627H32.9097C32.6497 5.2627 32.4297 5.472 32.4297 5.7411V19.4454C32.3597 25.3956 30.7397 27.0202 27.1297 28.3557C26.6397 28.5351 26.5897 28.8142 26.5897 29.0135C26.5897 29.8806 28.1397 29.9205 28.4497 29.9205C32.6597 29.9205 35.4297 26.8009 36.5197 24.1198C37.3697 22.0866 37.4497 20.1929 37.4497 18.4188V5.7411C37.4497 5.48196 37.2397 5.2627 36.9697 5.2627" fill="#231815"/>
<path d="M105.37 12.5878C104.36 11.92 102.55 11.5513 99.9597 11.5513C98.7097 11.5513 96.8097 11.7008 95.1897 12.1094C92.1897 12.847 92.1897 13.6343 92.1897 14.8104V28.9732C92.1897 29.2323 92.3997 29.4516 92.6697 29.4516H96.1597C96.4197 29.4516 96.6297 29.2423 96.6297 28.9732V16.9034C96.6297 16.0064 96.6297 13.2656 99.6697 13.2656C100.55 13.2656 101.49 13.6044 101.98 14.0928C102.58 14.6808 102.74 15.2689 102.74 16.9034V28.9732C102.74 29.2323 102.95 29.4516 103.22 29.4516H106.67C106.93 29.4516 107.15 29.2423 107.15 28.9732V16.0363C107.15 14.322 106.55 13.3652 105.37 12.5878Z" fill="#231815"/>
<path d="M127.57 18.05V16.9039C127.57 16.6647 127.69 16.6049 127.83 16.5451C127.83 16.5451 128.29 16.3457 129.53 15.7876C129.82 15.658 129.93 15.5284 129.93 15.1298V9.12977C129.93 8.87064 130.14 8.65137 130.41 8.65137H133.73C133.99 8.65137 134.21 8.86067 134.21 9.23941V13.0268C134.21 13.4454 134.31 13.6547 134.86 13.4255L138.16 11.9603C138.28 11.9005 138.44 11.9105 138.44 12.1198V13.2959C138.44 13.4853 138.37 13.5849 138.18 13.6647C138.18 13.6647 136.55 14.4122 134.64 15.2394C134.33 15.3789 134.23 15.5484 134.23 15.9072V24.1198C134.23 25.1663 134.21 27.9171 137.26 28.0866C137.51 28.1065 138.03 28.0268 138.15 28.3258C138.26 28.5849 138.1 28.8042 137.98 28.9238C137.49 29.3823 136.19 29.9005 134.59 29.9005C132.99 29.9005 131.84 29.452 130.99 28.555C130.02 27.4985 129.95 26.3922 129.95 25.0467V17.9404C129.95 17.5816 129.8 17.3623 129.31 17.6015L127.9 18.2195C127.8 18.2593 127.58 18.2992 127.58 18.0301" fill="#231815"/>
</g>
<defs>
<clipPath id="clip0_1490_7997">
<rect width="137.93" height="36" fill="white" transform="translate(0.499756)"/>
</clipPath>
</defs>
</svg>
