<svg width="169" height="26" viewBox="0 0 169 26" fill="none" xmlns="http://www.w3.org/2000/svg">
<g clip-path="url(#clip0_1490_7984)">
<path d="M77.8812 6.69746C77.8812 6.06925 78.3878 5.57275 78.8944 5.57275H81.6505C82.2077 5.57275 82.6536 6.07938 82.6536 6.69746V9.08873H87.9529C89.3512 9.08873 89.797 10.102 89.797 11.1963C89.797 11.1963 89.8882 18.6741 89.9287 19.1706C89.9591 19.6569 90.4151 20.6803 90.9622 20.7006C92.2187 20.7614 92.6544 21.035 92.6645 21.7949C92.6848 22.5548 92.8671 24.4496 92.32 25.2095C91.712 26.0607 89.5943 25.7364 88.5102 25.5743C85.7339 25.0069 85.5413 21.7848 85.5819 18.5626C85.6021 16.759 85.5819 13.5572 85.5819 13.5572C85.5819 13.3241 85.3995 13.2937 85.3083 13.2937H82.8461C82.5523 13.3343 82.6536 13.5065 82.6536 13.5673C82.6637 15.0466 82.4509 16.5159 82.2888 17.7926C83.0386 18.2992 84.2647 18.7855 84.3964 19.4847C84.6396 20.7816 84.1532 22.2711 83.0386 23.183C82.0152 23.9126 80.5866 22.4535 80.009 21.9874C79.8975 21.8962 79.8773 21.9165 79.8773 21.9165C77.7089 24.1456 75.1353 25.4527 72.1867 25.7364C71.6193 25.7364 71.1937 25.4223 71.0924 24.8144C70.9809 24.1963 70.6162 21.2781 71.8422 20.9539C72.9466 20.7208 74.1524 20.5182 74.8516 19.6468C74.3652 19.3327 73.3621 19.0287 73.2304 18.2688C73.0682 17.5088 73.3519 16.0599 74.3449 15.1581C75.1251 14.5096 76.5842 15.4013 77.6076 15.6546C78.0636 14.8237 77.871 14.3272 77.9014 13.5876C77.9014 13.5876 77.9825 13.2937 77.5164 13.2937C76.4525 13.2937 74.5172 13.314 73.0277 13.314C72.359 13.314 71.8726 12.858 71.8726 12.2602C71.8726 11.5104 71.8726 10.6289 71.8726 10.1222C71.8726 9.49403 72.4907 9.08873 73.0277 9.08873H77.9116V6.69746H77.8812Z" fill="#E50012"/>
<path d="M106.85 20.4373C108.947 23.5379 112.089 25.2604 115.564 25.7366C116.182 25.9089 116.891 25.4529 117.104 24.8146C117.307 23.9229 117.55 21.6532 116.749 21.2783C115.949 20.9034 114.105 20.8325 113.061 20.0928C111.278 18.8465 109.322 16.4654 109.464 13.9019C109.464 13.9019 109.464 13.7296 109.636 13.7296H115.868C116.243 13.7296 116.648 13.3851 116.8 13.0102C117.165 12.1388 117.135 10.5987 116.8 10.0718C116.547 9.67662 116.243 9.35238 115.868 9.35238H109.343C109.059 9.14973 109.12 8.11621 109.12 7.23468C109.12 6.35316 108.684 5.806 108.096 5.806C107.286 5.7756 106.212 5.7756 105.391 5.806C104.803 5.806 104.357 6.39369 104.357 7.23468C104.357 8.11621 104.428 9.14973 104.145 9.35238H97.6193C97.2444 9.35238 96.9303 9.68675 96.6871 10.0718C96.3527 10.5987 96.3223 12.1388 96.6871 13.0102C96.8391 13.3952 97.2545 13.7296 97.6193 13.7296H103.861C104.033 13.7296 104.013 13.9019 104.013 13.9019C104.155 16.4654 102.199 18.8465 100.426 20.0928C99.3722 20.8224 97.5382 20.8933 96.7276 21.2783C95.9272 21.6532 96.1704 23.9229 96.373 24.8146C96.6061 25.4529 97.2951 25.9089 97.9233 25.7366C101.399 25.2604 104.53 23.5379 106.637 20.4373H106.86H106.85Z" fill="#E50012"/>
<path d="M139.304 18.9071C140.419 19.0287 142.314 18.9071 142 20.2041C141.736 20.9235 141.169 22.2711 141.169 22.2711C141.463 22.5143 143.631 22.3319 143.611 23.6289C143.53 24.2571 143.489 24.9563 143.205 25.4325C142.729 26.2735 141.047 26.1418 137.308 25.1285C135.981 24.7333 134.765 24.0747 134.765 24.0747C132.141 24.7536 128.868 25.2501 124.683 25.7669C123.67 25.8378 121.866 26.2836 121.542 24.9866C121.461 24.6117 121.339 23.8822 121.4 23.2337C121.542 22.5751 121.927 22.2813 122.454 22.1293C123.396 22.0077 124.511 21.8962 124.511 21.8962V12.7871C123.346 13.2836 120.458 15.0568 120.144 13.7396C119.84 12.0677 120.012 11.2064 120.934 10.6188C120.934 10.6188 126.892 7.09265 129.77 5.62344C130.246 5.42079 130.986 5.2992 131.816 5.28906H131.999C132.83 5.30933 133.559 5.42079 134.046 5.62344C136.923 7.09265 142.881 10.6188 142.881 10.6188C143.793 11.2064 143.965 12.0677 143.661 13.7396C143.347 15.0568 140.855 13.4559 139.304 12.6655V18.9173V18.9071ZM129.273 13.1215C128.969 13.1215 128.716 13.4761 128.716 13.9118C128.716 14.3475 128.969 14.7022 129.273 14.7022H134.816C135.13 14.7022 135.373 14.3475 135.373 13.9118C135.373 13.4761 135.12 13.1215 134.816 13.1215H129.273ZM134.147 10.3857V11.5307H137.187C135.88 10.8214 132.627 8.27815 132.394 8.05524C132.262 7.98431 132.131 7.95391 132.009 7.94378H131.948C131.827 7.95391 131.695 7.98431 131.573 8.05524C130.682 8.9469 128.067 10.7505 126.75 11.5307H129.912V10.3756C129.912 9.7271 130.56 9.71697 130.56 9.71697H133.417C133.417 9.71697 134.157 9.70683 134.157 10.3756M130.58 20.9539C130.175 20.7411 129.253 19.6468 129.253 19.6468H128.756V21.3187C128.716 21.2174 128.777 21.268 129.111 21.2275C129.81 21.1363 130.58 20.9539 130.58 20.9539ZM134.826 17.7622C135.14 17.7622 135.383 17.4075 135.383 16.9718C135.383 16.5361 135.13 16.1815 134.826 16.1815H129.283C128.979 16.1815 128.726 16.5361 128.726 16.9718C128.726 17.4075 128.979 17.7622 129.283 17.7622H134.826ZM137.987 19.6367H133.488C133.488 19.6367 134.035 19.9711 134.035 19.9001C134.4 20.1636 136.204 21.0147 136.974 21.2579L137.339 21.3592C137.703 20.6905 137.987 19.6367 137.987 19.6367Z" fill="#E50012"/>
<path d="M150.855 12.1693V8.01495C150.855 6.54573 152.041 5.3501 153.51 5.3501H160.958C162.427 5.3501 163.622 6.54573 163.622 8.01495V12.1693C163.622 13.6385 162.427 14.8341 160.958 14.8341H153.51C152.051 14.8341 150.855 13.6385 150.855 12.1693ZM154.473 10.4366C154.473 11.0243 155.04 11.5005 155.76 11.5005H158.718C159.428 11.5005 159.995 11.0243 159.995 10.4366V9.7476C159.995 9.15992 159.428 8.68369 158.718 8.68369H155.76C155.04 8.68369 154.473 9.15992 154.473 9.7476V10.4366ZM156.641 18.8973V22.9604C156.641 24.4296 155.445 25.6252 153.976 25.6252H148.424C146.954 25.6252 145.769 24.4397 145.769 22.9604V18.8973C145.769 17.428 146.954 16.2324 148.424 16.2324H153.976C155.445 16.2324 156.641 17.4179 156.641 18.8973ZM153.044 20.64C153.044 20.0524 152.477 19.5761 151.767 19.5761H150.602C149.903 19.5761 149.325 20.0524 149.325 20.64V21.2277C149.325 21.8255 149.893 22.3018 150.602 22.3018H151.767C152.477 22.3018 153.044 21.8255 153.044 21.2277V20.64ZM168.77 18.8973V22.9604C168.77 24.4296 167.574 25.6252 166.105 25.6252H160.542C159.073 25.6252 157.877 24.4397 157.877 22.9604V18.8973C157.877 17.428 159.063 16.2324 160.542 16.2324H166.105C167.574 16.2324 168.77 17.4179 168.77 18.8973ZM165.173 20.64C165.173 20.0524 164.595 19.5761 163.896 19.5761H162.731C162.021 19.5761 161.454 20.0524 161.454 20.64V21.2277C161.454 21.8255 162.021 22.3018 162.731 22.3018H163.896C164.595 22.3018 165.173 21.8255 165.173 21.2277V20.64Z" fill="#E50012"/>
<path d="M65.3979 12.9998C65.3979 7.83218 61.8212 4.29594 56.7144 4.29594C51.9724 4.29594 48.2335 8.14629 48.122 12.8782C48.0207 17.2047 51.4151 20.8119 55.7214 20.9842C55.2046 21.0754 54.6778 21.126 54.1407 21.126C50.2093 21.126 45.8118 18.7348 45.8118 12.6958V7.69033C45.8118 3.42454 42.3566 -0.0205078 38.101 -0.0205078C36.1353 -0.0205078 34.3418 0.719165 32.9841 1.92493C31.6263 0.719165 29.8329 -0.0205078 27.8672 -0.0205078C25.101 -0.0205078 22.6793 1.42844 21.3216 3.62719C19.1127 1.5095 16.1134 0.182142 12.8001 0.182142C6.04174 0.182142 0.57019 5.22813 0.57019 12.4019C0.57019 12.5742 0.57019 12.7566 0.57019 12.9187C0.57019 17.7215 4.46107 21.6327 9.26388 21.6327C14.0667 21.6327 17.7448 17.7823 17.8562 13.0504C17.9576 8.72384 14.5733 5.11667 10.2569 4.94442C10.7635 4.84309 11.3005 4.79243 11.8375 4.79243C16.7417 4.79243 20.1766 8.54146 20.1766 13.1517V23.4058C20.1766 24.8345 21.3418 25.9998 22.7705 25.9998C24.1992 25.9998 25.3644 24.8345 25.3644 23.4058V7.36609C25.3644 5.97793 26.4891 4.85323 27.8773 4.85323C29.2654 4.85323 30.4003 5.97793 30.4003 7.36609V23.4058C30.4003 24.8345 31.5655 25.9998 32.9942 25.9998C34.4229 25.9998 35.5881 24.8345 35.5881 23.4058V7.36609C35.5881 5.97793 36.7128 4.85323 38.101 4.85323C39.4891 4.85323 40.5936 5.97793 40.5936 7.36609V13.1416C40.5936 20.1026 46.2171 25.7464 53.1781 25.7464C60.1392 25.7464 65.4182 20.2749 65.4182 13.5266C65.4182 13.3544 65.4182 13.172 65.4182 12.9998M13.0028 13.0403C13.0028 15.0972 11.341 16.7589 9.28414 16.7589C7.22724 16.7589 5.55538 15.0871 5.55538 13.0403C5.55538 10.9935 7.21711 9.31153 9.28414 9.31153C11.3512 9.31153 13.0028 10.9834 13.0028 13.0403ZM56.7245 16.6069C54.6676 16.6069 52.9958 14.9452 52.9958 12.8782C52.9958 10.8111 54.6676 9.14941 56.7245 9.14941C58.7814 9.14941 60.4533 10.8213 60.4533 12.8782C60.4533 14.9351 58.7814 16.6069 56.7245 16.6069Z" fill="#E50012"/>
</g>
<defs>
<clipPath id="clip0_1490_7984">
<rect width="168.2" height="26" fill="white" transform="translate(0.57019)"/>
</clipPath>
</defs>
</svg>
