<svg width="183" height="45" viewBox="0 0 183 45" fill="none" xmlns="http://www.w3.org/2000/svg">
<g clip-path="url(#clip0_3513_181567)">
<path d="M182.084 0.0268555H0.986816V44.9999H182.084V0.0268555Z" fill="#FFD100"/>
<path d="M104.787 20.2007H97.5479L90.8609 36.7247L90.5485 36.3422L84.3504 28.6427L92.3821 20.2007H85.2967L78.5553 27.7742V20.2007H72.4795V38.2547H78.5553V30.1997L84.6809 38.2547H96.4976L97.6973 35.1722H104.629L105.829 38.2547H112.09L104.783 20.2007H104.787ZM99.1235 31.5362L101.17 25.4477L103.216 31.5362H99.1235Z" fill="#001689"/>
<path d="M145.729 38.2591H151.991L144.683 20.2051H137.444L130.137 38.2591H136.398L137.598 35.1766H144.529L145.729 38.2591ZM139.015 31.5361L141.061 25.4476L143.108 31.5361H139.015Z" fill="#001689"/>
<path d="M69.84 38.2591V29.2321V20.2051H66.9515H63.6147V29.2321V38.2591H66.9515H69.84Z" fill="#001689"/>
<path d="M117.446 31.0996C115.346 30.9601 114.137 30.8566 112.955 29.7406C112.19 29.0161 111.524 27.7966 111.524 25.5601C111.524 23.3236 112.104 22.1086 113.118 21.2446C114.743 19.8631 117.885 19.8946 121.204 19.8946C126.297 19.8946 127.85 20.3176 129.326 22.1356C129.861 22.7926 130.313 24.3001 130.399 25.9471H124.772C124.88 24.3721 122.943 24.2821 120.833 24.2821C119.303 24.2821 116.618 24.1831 116.523 25.6231C116.423 27.1126 118.316 26.9956 119.769 27.0631C119.769 27.0631 122.87 27.1891 125.147 27.2881C127.574 27.3961 128.403 27.9991 129.091 28.6696C130.146 29.7001 130.372 31.5046 130.372 32.9356C130.372 37.9081 127.126 38.5066 121.539 38.5066C115.952 38.5066 114.671 38.0701 113.367 36.9541C112.448 36.1666 111.66 34.7446 111.66 32.4406H117.125C117.016 34.0156 119.321 34.1056 121.43 34.1056C122.961 34.1056 125.184 34.2226 125.374 32.7691C125.569 31.2886 123.948 31.3921 122.49 31.3246C122.49 31.3246 119.719 31.2526 117.442 31.0996" fill="#001689"/>
<path d="M66.73 6.41699L65.2269 11.016H60.3599L64.2942 13.8555L62.7911 18.4545L66.73 15.6105L70.6643 18.4545L69.1612 13.8555L73.1001 11.016H68.2331L66.73 6.41699Z" fill="#001689"/>
<path d="M46.8951 25.4475L43.9659 16.29H37.5822L31.6558 38.259H38.4152L40.9596 27.0765L44.1877 38.259H49.6161L52.8442 27.0765L55.3841 38.259H62.1435L56.2171 16.29H49.838L46.8951 25.4475Z" fill="#001689"/>
</g>
<defs>
<clipPath id="clip0_3513_181567">
<rect width="181.098" height="45" fill="white" transform="translate(0.986816)"/>
</clipPath>
</defs>
</svg>
