<svg width="180" height="45" viewBox="0 0 180 45" fill="none" xmlns="http://www.w3.org/2000/svg">
<g clip-path="url(#clip0_3513_181576)">
<path d="M179.013 0H0.0844727V45H179.013V0Z" fill="#005BAB"/>
<path d="M59.6474 25.2178V14.825C59.6474 13.763 60.1103 12.5008 61.8929 12.5008C63.6755 12.5008 64.1362 14.0938 64.1362 14.825V25.2178H68.9584V14.9555C68.9584 12.899 67.6343 8.7793 62.4163 8.7793C58.4575 8.7793 57.0059 11.6345 57.0059 11.6345C57.0059 11.6345 55.5544 8.7793 51.5911 8.7793C46.3753 8.7793 45.0513 12.8968 45.0513 14.9555V25.2178H49.8734V14.825C49.8734 14.0938 50.3364 12.5008 52.1167 12.5008C53.897 12.5008 54.36 13.763 54.36 14.825V25.2178H59.6407H59.6474Z" fill="white"/>
<path d="M71.8887 22.6621C73.461 24.6871 75.9079 25.9899 78.6611 25.9899C81.4144 25.9899 83.8612 24.6871 85.4336 22.6621H71.8887Z" fill="white"/>
<path d="M77.006 21.6789C75.4717 21.1299 74.0873 19.5909 74.0873 17.3004C74.0873 12.9669 79.7817 12.5192 79.7817 10.1769C79.7817 9.31292 78.8535 8.84717 78.0572 8.73242C73.593 9.04292 70.0703 12.7802 70.0703 17.3499C70.0703 18.9204 70.4886 20.3964 71.2177 21.6654L77.006 21.6789ZM86.1001 21.6654C86.8314 20.3964 87.2475 18.9204 87.2475 17.3499C87.2475 12.9804 84.0245 9.37142 79.8398 8.79317C80.8217 9.35567 82.7519 11.0342 82.7519 13.9142C82.7519 18.2679 77.4041 17.9462 77.4041 20.2884C77.4041 21.3257 78.31 21.6789 78.6566 21.6789L86.0978 21.6654H86.1001ZM79.8085 21.0264C78.6857 21.0264 77.5831 20.0004 80.0568 18.9699C80.985 18.5852 82.9174 17.2892 83.3804 15.6624C83.8411 19.3479 81.987 21.0264 79.8085 21.0264Z" fill="white"/>
<path d="M93.1007 5.14795H88.2495V25.2202H93.1007V5.14795Z" fill="white"/>
<path d="M102.705 13.365V9.43196H99.4884V5.19971H94.834V20.2387C94.834 21.384 95.4759 23.4765 96.8156 24.3225C98.1531 25.1685 99.2893 25.4182 102.705 25.4182V21.1837C101.568 21.4335 99.4884 21.483 99.4884 19.2915V13.3627H102.705V13.365Z" fill="white"/>
<path d="M119.786 15.6577C119.439 12.0195 116.024 8.33398 111.421 8.33398C106.818 8.33398 102.805 11.97 102.805 17.4487C102.805 19.5412 104.19 25.7152 111.121 25.7152C118.052 25.7152 119.589 21.1342 119.589 20.088H114.885C114.787 20.3872 114.241 22.2322 111.219 22.2322C108.911 22.2322 107.677 21.2287 107.448 18.396H119.835C119.835 17.55 119.882 16.803 119.783 15.6577H119.786ZM107.596 15.2077C108.048 12.9442 109.323 11.871 111.421 11.871C114.093 11.871 115.033 14.112 115.033 15.2077H107.596Z" fill="white"/>
<path d="M128.027 12.2197C130.009 12.2197 130.38 14.1615 130.38 14.661V25.2202H135.133V15.2595C135.133 13.6147 134.417 8.38574 128.027 8.38574C121.637 8.38574 120.924 13.6147 120.924 15.2595V25.2202H125.677V14.661C125.677 14.1637 126.048 12.2197 128.027 12.2197Z" fill="white"/>
<path d="M135.455 10.1792C136.026 10.1792 136.556 9.95644 136.958 9.55369C137.361 9.15094 137.58 8.61319 137.58 8.04394C137.58 7.47469 137.361 6.93694 136.958 6.53419C136.558 6.13144 136.026 5.90869 135.455 5.90869C134.288 5.90869 133.331 6.86494 133.331 8.04394C133.331 8.61319 133.554 9.15094 133.957 9.55369C134.357 9.95644 134.889 10.1792 135.455 10.1792ZM133.682 8.04394C133.682 7.56694 133.865 7.11919 134.203 6.78169C134.536 6.44419 134.983 6.25744 135.455 6.25744C135.927 6.25744 136.377 6.44194 136.715 6.78169C137.048 7.11694 137.233 7.56694 137.233 8.04394C137.233 9.02944 136.435 9.82819 135.458 9.82819C134.986 9.82819 134.538 9.64369 134.205 9.30844C133.867 8.97094 133.684 8.52094 133.684 8.04394H133.682Z" fill="white"/>
<path d="M134.88 7.137H135.654C135.762 7.137 135.849 7.15275 135.912 7.18425C136.032 7.245 136.093 7.3575 136.093 7.52625C136.093 7.6815 136.05 7.7895 135.963 7.85025C135.878 7.90875 135.759 7.938 135.612 7.938H134.878V7.137H134.88ZM134.88 9.2115V8.20575H135.598C135.73 8.20575 135.827 8.21925 135.885 8.2485C135.992 8.3025 136.05 8.40375 136.055 8.55675L136.073 8.94825C136.077 9.0405 136.082 9.099 136.091 9.13275C136.097 9.16425 136.106 9.19125 136.115 9.2115H136.507V9.15975C136.455 9.13725 136.422 9.09 136.401 9.0135C136.39 8.97075 136.384 8.90325 136.381 8.8155L136.37 8.5005C136.363 8.3655 136.339 8.26425 136.292 8.20575C136.245 8.145 136.18 8.0955 136.086 8.05725C136.189 8.0055 136.269 7.9335 136.328 7.8435C136.39 7.7535 136.417 7.6365 136.417 7.497C136.417 7.227 136.307 7.0425 136.088 6.9435C135.972 6.8895 135.827 6.86475 135.648 6.86475H134.567V9.2115H134.883H134.88Z" fill="white"/>
<path d="M56.3978 34.4046C56.1004 34.8816 55.8678 35.3608 55.7 35.7208C56.5231 34.9356 57.581 34.1841 58.2923 33.7746C58.6948 33.5586 59.2182 33.3583 59.7058 33.3943C59.802 33.4011 59.9116 33.4101 59.9697 33.4191C60.01 33.4236 60.01 33.4506 59.9898 33.4708C59.7751 33.6913 59.5045 34.0131 59.3278 34.2651C59.3166 34.2808 59.301 34.2831 59.2808 34.2876C57.1762 34.5553 55.4629 36.0538 53.951 38.6818C53.9398 38.6953 53.9331 38.7043 53.913 38.7111L53.7206 38.7516C53.62 38.7718 53.5305 38.6661 53.5372 38.3916C53.5529 37.6783 54.5057 35.4643 55.3131 34.3461C55.8074 33.6801 56.0624 33.5541 56.9167 33.5541C56.9503 33.5541 56.9637 33.5676 56.9413 33.6013C56.8586 33.7206 56.588 34.1031 56.3978 34.4046ZM84.1765 33.6036C84.1989 33.5698 84.1855 33.5563 84.1519 33.5563C83.2975 33.5563 83.0426 33.6823 82.5483 34.3483C81.7408 35.4666 80.7903 37.6828 80.7724 38.3938C80.7657 38.6683 80.8574 38.7718 80.9558 38.7538L81.1481 38.7133C81.1683 38.7066 81.1772 38.6998 81.1839 38.6841C82.6959 36.0561 84.4114 34.5598 86.5138 34.2898C86.5339 34.2853 86.5496 34.2831 86.5607 34.2673C86.7352 34.0153 87.0058 33.6936 87.2205 33.4731C87.2429 33.4528 87.2429 33.4258 87.2026 33.4213C87.1445 33.4123 87.0349 33.4033 86.9387 33.3966C86.4534 33.3606 85.93 33.5608 85.5252 33.7768C84.8162 34.1863 83.756 34.9378 82.933 35.7231C83.1007 35.3631 83.3333 34.8838 83.6308 34.4068C83.8209 34.1053 84.0915 33.7251 84.1743 33.6036H84.1765ZM52.0007 36.9988C51.106 37.9911 50.0034 38.6121 49.4398 38.6031C48.809 38.5918 48.6726 37.9438 48.6815 37.4961C48.7061 36.1281 49.9631 34.4788 51.6294 33.6801C52.2333 33.3898 52.6963 33.2931 53.2241 33.3156C53.3203 33.3178 53.3918 33.3876 53.4366 33.4303C53.8414 33.8106 54.1523 34.6161 52.0029 36.9988H52.0007ZM53.025 34.4451C53.025 34.1391 52.8036 33.9568 52.4346 33.9568C52.2109 33.9568 51.9313 34.0333 51.6249 34.1796C50.5737 34.6903 49.7797 35.7276 49.782 36.5961C49.782 37.0056 49.9251 37.2778 49.9944 37.3633C50.113 37.5118 50.1845 37.4646 50.3501 37.4286C50.7683 37.3228 51.4013 36.8863 51.9202 36.3328C52.5934 35.6151 53.0273 34.8771 53.0273 34.4451H53.025ZM136.294 35.4576C135.967 36.6096 133.234 38.6278 130.655 38.6278C130.224 38.6278 129.906 38.3983 129.915 37.6828C129.92 37.4668 129.949 37.2418 130 37.0168C128.853 37.6671 127.01 38.5243 126.558 38.5243C126.401 38.5243 126.249 38.4366 126.249 38.1126C126.249 37.2283 127.348 35.2101 127.556 34.8051C127.674 34.5823 127.69 34.5126 127.69 34.4631C127.69 34.3528 127.632 34.2988 127.517 34.2988C127.374 34.2988 127.077 34.4383 126.855 34.5666C125.565 35.4283 124.426 36.7153 123.369 38.4276C123.342 38.4658 123.284 38.4928 123.196 38.5153L123.14 38.5266C122.991 38.5468 122.897 38.3533 122.897 38.1418C122.897 37.4938 123.505 35.9481 124.23 34.7691C124.359 34.5643 124.382 34.5216 124.382 34.4518C124.382 34.3821 124.33 34.3033 124.205 34.3033C123.934 34.3033 123.234 34.7713 122.666 35.2348C122.284 35.5521 121.029 36.6771 120.034 38.3983C119.998 38.4591 119.956 38.4906 119.859 38.5176L119.81 38.5288C119.727 38.5446 119.586 38.4703 119.586 38.1711C119.586 37.6693 119.855 36.8818 120.226 36.0988C119.07 36.9111 116.511 38.5626 116.156 38.5626C115.86 38.5626 115.856 38.3578 115.856 38.1598C115.869 37.4893 116.234 36.5736 117.028 35.2236C115.742 36.3576 113.212 38.5761 112.521 38.5738C112.264 38.5738 112.114 38.3578 112.112 38.0046C112.112 37.3431 112.532 36.4273 113.174 35.6713C112.479 36.0516 111.045 36.8616 109.824 37.5861C108.904 39.3186 108.162 40.5673 107.068 41.5956C106.473 42.1558 105.914 42.5113 105.596 42.5113C105.4 42.5113 105.165 42.3493 105.172 41.8836C105.23 40.0993 107.775 38.1756 108.739 37.5231C109.083 36.8391 109.497 36.0201 109.808 35.4576C109.2 35.9593 106.686 38.0451 106.686 38.0451C106.225 38.4073 105.889 38.5761 105.623 38.5761C105.281 38.5761 105.227 38.2566 105.227 38.0518C105.227 37.1473 106.024 35.8333 107.12 34.9221C108.983 33.3763 111.593 33.3471 112.347 33.3741C112.398 33.3763 112.391 33.4011 112.373 33.4236C111.331 34.7353 110.208 36.8278 110.19 36.8638C111.179 36.3036 113.053 35.4868 113.554 35.2686C115.033 33.8128 117.077 33.1108 119.273 33.3403C119.327 33.3471 119.327 33.3898 119.302 33.4258C118.752 34.2381 117.799 35.7906 117.41 36.9088C117.363 37.0416 117.363 37.0978 117.495 37.0461C118.209 36.7536 119.714 36.0853 120.378 35.7793C120.799 34.9468 121.311 34.1638 121.705 33.7881C122.004 33.5248 122.66 33.5316 122.854 33.5473C122.91 33.5518 122.91 33.5878 122.885 33.6238C122.351 34.4113 121.973 34.9311 121.517 35.9098C123.257 34.3303 124.668 33.2773 125.865 33.4461C126.05 33.4753 126.048 33.5878 125.981 33.7003C125.701 34.2021 125.062 35.3541 124.775 35.9841C126.184 34.6026 127.963 33.3223 129.159 33.3808C129.291 33.3876 129.41 33.4618 129.316 33.6306C128.837 34.4788 128.014 36.1371 127.654 37.1766C127.611 37.3026 127.594 37.3678 127.77 37.3363C128.379 37.2058 129.405 36.8886 130.105 36.6501C130.367 35.8738 130.886 35.0976 131.575 34.4968C132.393 33.7791 133.946 33.1896 134.86 33.2638C134.936 33.2728 134.968 33.3178 134.994 33.3831C135.035 33.4866 135.035 33.5991 134.997 33.7611C134.659 34.8838 133.196 35.9233 131.107 36.8841C131.143 37.4961 131.277 37.6671 131.648 37.6671C133.207 37.6671 135.78 36.2518 136.169 35.3698C136.209 35.2686 136.339 35.3023 136.296 35.4576H136.294ZM108.424 38.2768C107.596 38.8596 106.556 39.6718 106.475 40.9926C106.455 41.3031 106.547 41.4268 106.737 41.4268C106.878 41.4268 106.99 41.3503 107.162 41.0511C107.384 40.6551 108.207 38.8843 108.424 38.2768ZM110.81 34.0986C110.727 34.0603 110.539 33.9951 110.249 33.9928C109.32 33.9793 108.265 34.4271 107.623 35.0751C107.164 35.5363 106.842 36.2248 106.833 36.7603C106.831 36.9381 106.887 37.1473 107.053 37.1473C107.413 37.1473 110.003 34.8658 110.81 34.0986ZM117.795 34.1278C117.043 33.8151 115.435 34.0108 114.373 35.1313C113.489 36.1191 113.478 36.9763 113.834 37.1203C113.926 37.1541 113.999 37.1338 114.055 37.0911C114.883 36.4903 116.86 34.8973 117.795 34.1256V34.1278ZM131.103 36.4026C133.091 35.6848 133.713 34.5711 133.762 33.9568C133.762 33.8646 133.78 33.7993 133.606 33.7993C133.335 33.7993 132.809 33.9973 132.465 34.2403C131.832 34.6971 131.21 35.5566 131.103 36.4003V36.4026ZM100.273 36.8211C100.188 37.0393 100.264 37.1316 100.378 37.0866C101.313 36.7198 103.215 35.8626 103.628 35.6691C103.774 35.6016 103.776 35.7276 103.648 35.8176C102.772 36.4318 99.6449 38.5918 98.9985 38.5918C98.8218 38.5918 98.7346 38.4861 98.7346 38.2858C98.7346 37.8988 98.956 36.9898 99.4257 35.9953C98.3521 36.7648 95.5899 38.5558 95.2186 38.5558C94.9234 38.5558 94.9212 38.3511 94.9189 38.1531C94.9301 37.4826 95.2969 36.5668 96.0909 35.2168C94.8049 36.3508 92.2753 38.5693 91.5864 38.5671C91.3314 38.5671 91.1793 38.3511 91.1771 37.9978C91.1771 37.6491 91.2956 37.2283 91.4992 36.7986C90.3428 37.6693 88.5513 38.6211 86.9678 38.6211C86.5361 38.6211 86.2163 38.3916 86.2275 37.6761C86.2431 36.6028 86.8873 35.3586 87.8848 34.4901C88.7034 33.7723 90.2556 33.1828 91.1704 33.2571C91.2464 33.2661 91.28 33.3111 91.3046 33.3763C91.3448 33.4798 91.3448 33.5923 91.3068 33.7543C90.9691 34.8771 89.5063 35.9166 87.4174 36.8773C87.4531 37.4893 87.5873 37.6603 87.9608 37.6603C88.9606 37.6603 90.855 36.7356 91.9241 36.0741C92.065 35.8738 92.2193 35.6803 92.3871 35.4958C93.8767 33.8803 96.0238 33.0906 98.3387 33.3313C98.3924 33.3381 98.3924 33.3808 98.3678 33.4168C97.8176 34.2291 96.8648 35.7816 96.4734 36.8998C96.4264 37.0326 96.4286 37.0888 96.5584 37.0371C97.3166 36.7243 98.9739 35.9908 99.5577 35.7163C99.5666 35.6961 99.5778 35.6758 99.5867 35.6556C100.481 33.9276 101.723 31.8013 103.449 30.0171C103.78 29.6751 104.187 29.5851 104.876 29.5153C104.937 29.5108 104.95 29.5356 104.926 29.5648C104.1 30.5661 101.542 33.6598 100.273 36.8143V36.8211ZM87.4129 36.4026C89.4035 35.6848 90.023 34.5711 90.0722 33.9568C90.0722 33.8646 90.0901 33.7993 89.9156 33.7993C89.6428 33.7993 89.1172 33.9973 88.775 34.2403C88.142 34.6971 87.5202 35.5566 87.4129 36.4003V36.4026ZM96.8603 34.1278C96.1043 33.8151 94.5007 34.0108 93.4361 35.1313C92.5526 36.1191 92.5414 36.9763 92.897 37.1203C92.9887 37.1541 93.0625 37.1338 93.1207 37.0911C93.946 36.4903 95.9232 34.8973 96.8603 34.1256V34.1278ZM53.3605 30.2578C50.7034 30.2578 46.4986 30.6021 46.0401 30.6426C45.9775 30.6493 45.9014 30.6673 45.8388 30.7258C45.6286 30.9081 44.9755 31.6213 44.886 31.7563C44.8502 31.8171 44.7988 31.8981 44.9733 31.8688C44.9755 31.8688 46.6283 31.5538 46.7491 31.5381C44.7093 33.5023 43.1951 35.8153 41.4327 39.5773C41.379 39.7123 41.4036 39.7461 41.511 39.7258C41.9158 39.6471 42.6494 39.4941 43.0856 39.3501C43.6917 38.0046 44.5036 36.4611 45.4027 35.0166C46.559 34.7106 47.8764 34.4158 48.9768 34.3281C49.0148 34.3236 49.0595 34.2943 49.0953 34.2561C49.1557 34.1908 49.3883 33.9388 49.4129 33.9006C49.4979 33.7926 49.4509 33.7723 49.0886 33.7768C48.3483 33.7881 47.1495 33.8916 46.0222 34.0581C46.7469 32.9826 47.5096 32.0083 48.2544 31.2816C50.0302 31.0858 51.5847 30.9036 53.1212 30.7753C53.1727 30.7686 53.2487 30.7686 53.289 30.7236L53.5797 30.4108C53.6871 30.2916 53.6334 30.2556 53.3628 30.2556L53.3605 30.2578ZM79.2761 35.4576C78.9496 36.6096 76.2187 38.6278 73.6376 38.6278C73.2059 38.6278 72.8883 38.3983 72.8973 37.6828C72.9018 37.4713 72.9286 37.2531 72.9778 37.0348C71.8125 37.6828 69.983 38.5153 69.5357 38.5153C69.4417 38.5153 69.2762 38.4276 69.2829 38.1036C69.2941 37.4151 69.7213 36.2946 70.4393 34.9918C70.6361 34.6521 70.6763 34.5643 70.6763 34.4856C70.6763 34.4068 70.6339 34.2831 70.484 34.2831C69.8399 34.2831 67.6972 36.2271 66.3083 38.6098C66.2971 38.6233 66.2904 38.6301 66.2702 38.6368L66.1248 38.6683C66.0242 38.6886 65.9347 38.5828 65.9415 38.3106C65.9415 37.7638 66.3172 36.6951 66.816 35.6533C65.7536 36.3576 62.0744 38.7291 61.5331 38.7291C61.3676 38.7291 61.3094 38.5761 61.3229 38.3038C61.4101 37.4421 62.1638 35.9593 62.969 34.6296C62.4769 34.7398 62.0207 34.8613 61.6919 34.9761C61.6024 35.0076 61.6181 34.9536 61.6405 34.9198C61.7143 34.8096 61.9312 34.5238 62.0028 34.4473C62.0542 34.3911 62.0833 34.3753 62.1236 34.3596C62.43 34.2651 62.8505 34.1751 63.3045 34.0918C64.0359 32.9398 64.7404 31.9993 64.9573 31.8508C65.143 31.7271 65.3756 31.6776 66.0645 31.6551C66.1137 31.6528 66.1047 31.6911 66.0891 31.7046C65.9034 31.9093 65.2526 32.8408 64.5726 33.8916C65.1967 33.8061 65.7312 33.7521 65.9347 33.7431C66.0667 33.7363 66.1226 33.7791 66.0846 33.8286L65.9236 34.0356C65.8967 34.0693 65.8654 34.0851 65.7916 34.0941C65.5679 34.1256 64.9685 34.2223 64.2752 34.3551C63.6534 35.3383 63.0607 36.3463 62.8303 36.9088C62.7565 37.0888 62.7766 37.1518 62.9958 37.0731C63.9509 36.7333 66.1808 35.7096 66.9636 35.3473C68.3503 32.6743 70.2559 30.2871 70.8955 29.8326C71.2579 29.5738 71.6202 29.5288 72.0966 29.5063C72.1391 29.5063 72.1324 29.5446 72.119 29.5603C70.9783 30.8383 69.0123 33.5226 67.9097 35.8108C69.9226 33.9343 71.3115 33.3403 72.1682 33.3606C72.3091 33.3673 72.3941 33.4596 72.2979 33.6283C71.8103 34.5148 71.0409 35.9841 70.6339 37.1743C70.5914 37.2981 70.5735 37.3656 70.7502 37.3341C71.3786 37.2103 72.3382 36.9133 73.0852 36.6546C73.3446 35.8761 73.868 35.0931 74.5591 34.4923C75.3777 33.7746 76.9299 33.1851 77.8469 33.2593C77.9207 33.2683 77.9543 33.3133 77.9811 33.3786C78.0214 33.4821 78.0214 33.5946 77.9811 33.7566C77.6434 34.8793 76.1829 35.9188 74.0916 36.8796C74.1297 37.4916 74.2616 37.6626 74.6351 37.6626C76.1918 37.6626 78.7639 36.2473 79.1531 35.3653C79.1956 35.2641 79.3253 35.2978 79.2806 35.4531L79.2761 35.4576ZM74.0827 36.4026C76.0733 35.6848 76.6928 34.5711 76.742 33.9568C76.7443 33.8646 76.7599 33.7993 76.5855 33.7993C76.3148 33.7993 75.787 33.9973 75.4448 34.2403C74.8118 34.6971 74.1901 35.5566 74.0827 36.4003V36.4026Z" fill="white"/>
</g>
<defs>
<clipPath id="clip0_3513_181576">
<rect width="178.929" height="45" fill="white" transform="translate(0.0844727)"/>
</clipPath>
</defs>
</svg>
