<svg width="521" height="60" viewBox="0 0 521 60" fill="none" xmlns="http://www.w3.org/2000/svg">
<path d="M268.143 0.943359C268.555 0.943359 268.844 1.27145 268.844 1.64056V11.4013C268.844 11.8114 268.596 12.0985 268.143 12.0985H253.175V22.1873H266.246C266.576 22.1873 266.947 22.5154 266.947 22.8845V32.5633C266.947 32.9734 266.617 33.2605 266.246 33.2605H253.175V58.4826C253.175 58.8107 252.845 59.1798 252.474 59.1798H241.836C241.423 59.1798 241.135 58.8517 241.135 58.4826V1.64056C241.135 1.31246 241.382 0.943359 241.836 0.943359H268.143Z" fill="white"/>
<path d="M308.222 16.2406V43.7593C308.222 54.9555 300.923 59.9999 291.893 59.9999C282.863 59.9999 275.647 54.9555 275.647 43.7593V16.2406C275.647 5.04442 282.946 0 291.893 0C300.841 0 308.222 5.04442 308.222 16.2406ZM287.77 15.3793V44.6206C287.77 47.5324 289.667 48.8038 291.893 48.8038C294.12 48.8038 296.099 47.5324 296.099 44.6206V15.3793C296.099 12.4675 294.202 11.1962 291.893 11.1962C289.584 11.1962 287.77 12.4675 287.77 15.3793Z" fill="white"/>
<path d="M334.941 0.943359C342.487 0.943359 348.507 5.12654 348.507 14.5182V19.8087C348.507 26.1245 345.58 29.8975 341.209 31.415C346.363 34.1627 348.425 38.51 348.59 44.6617L348.837 58.3185C348.837 58.6466 348.59 59.0157 348.218 59.0157H337.292C336.962 59.0157 336.591 58.6876 336.591 58.3185L336.343 44.7437C336.261 40.8066 332.921 37.6487 328.962 38.1409V58.3185C328.962 58.6466 328.715 59.0157 328.261 59.0157H317.788C317.376 59.0157 317.087 58.6876 317.087 58.3185V1.64056C317.087 1.31246 317.334 0.943359 317.788 0.943359H334.9H334.941ZM329.004 27.1908H332.014C334.488 27.1908 336.549 25.8374 336.549 22.6795V15.8306C336.549 12.7547 334.488 11.3193 332.014 11.3193H329.004V27.2318V27.1908Z" fill="white"/>
<path d="M405.904 0.943359C406.317 0.943359 406.688 1.35348 406.605 1.8046L395.019 58.4826C394.936 58.8107 394.606 59.0978 394.235 59.0978H383.927C383.515 59.0978 383.143 58.8517 383.061 58.4006L380.133 36.1723L377.206 58.4006C377.123 58.8107 376.793 59.0978 376.422 59.0978H366.114C365.702 59.0978 365.413 58.8517 365.331 58.4826L353.744 1.8046C353.661 1.39449 353.991 0.943359 354.445 0.943359H364.836C365.248 0.943359 365.619 1.18943 365.702 1.64056L371.268 36.9515L376.958 1.64056C377.041 1.23044 377.288 0.943359 377.742 0.943359H382.649C382.979 0.943359 383.35 1.18943 383.432 1.64056L388.999 36.9515L394.689 1.64056C394.771 1.23044 395.019 0.943359 395.472 0.943359H405.946H405.904Z" fill="white"/>
<path d="M429.325 0.943359C429.737 0.943359 430.109 1.18943 430.191 1.55853L441.695 58.2365C441.778 58.6466 441.53 59.0978 441.077 59.0978H430.603C430.191 59.0978 429.902 58.8517 429.82 58.4006L428.872 52.6589H419.429L418.563 58.4006C418.481 58.8107 418.151 59.0978 417.78 59.0978H407.306C406.894 59.0978 406.523 58.6876 406.605 58.2365L418.192 1.55853C418.274 1.23044 418.604 0.943359 418.975 0.943359H429.284H429.325ZM427.882 44.0055L424.171 21.08L420.542 44.0055H427.841H427.882Z" fill="white"/>
<path d="M465.611 0.943359C473.157 0.943359 479.177 5.12654 479.177 14.5182V19.8087C479.177 26.1245 476.249 29.8975 471.878 31.415C477.032 34.1627 479.094 38.51 479.259 44.6617L479.507 58.3185C479.507 58.6466 479.259 59.0157 478.888 59.0157H467.961C467.631 59.0157 467.26 58.6876 467.26 58.3185L467.013 44.7437C466.93 40.8066 463.59 37.6487 459.632 38.1409V58.3185C459.632 58.6466 459.384 59.0157 458.931 59.0157H448.458C448.045 59.0157 447.757 58.6876 447.757 58.3185V1.64056C447.757 1.31246 448.004 0.943359 448.458 0.943359H465.57H465.611ZM459.673 27.1908H462.683C465.157 27.1908 467.219 25.8374 467.219 22.6795V15.8306C467.219 12.7547 465.157 11.3193 462.683 11.3193H459.673V27.2318V27.1908Z" fill="white"/>
<path d="M504.412 0.943359C513.194 0.943359 520.328 5.82373 520.328 16.7738V43.2673C520.328 54.2174 513.194 59.0978 504.412 59.0978H488.413C488.083 59.0978 487.712 58.7697 487.712 58.4006V1.64056C487.712 1.31246 488.042 0.943359 488.413 0.943359H504.412ZM499.876 47.9426H502.639C505.731 47.9426 508.329 46.1381 508.329 42.201V17.7581C508.329 13.821 505.731 12.0165 502.639 12.0165H499.876V47.9016V47.9426Z" fill="white"/>
<path d="M16.6172 0.943359C25.3999 0.943359 32.5334 5.82373 32.5334 16.7738V21.4081C32.5334 33.1374 24.8639 38.4279 15.5039 38.4279H12.0815V58.4416C12.0815 58.7697 11.7516 59.1388 11.3805 59.1388H0.618505C0.288636 59.1388 0 58.8107 0 58.4416V1.64056C0 1.31246 0.247402 0.943359 0.618505 0.943359H16.6172ZM12.0815 27.1908H13.7308C17.5243 27.1908 20.5344 25.1402 20.5344 20.4239V17.7581C20.5344 13.821 17.9366 12.0165 14.8441 12.0165H12.0815V27.1497V27.1908Z" fill="white"/>
<path d="M55.1296 0.943359C55.5419 0.943359 55.913 1.18943 55.9955 1.55853L67.4997 58.2365C67.5822 58.6466 67.3348 59.0978 66.8812 59.0978H56.4078C55.9955 59.0978 55.7069 58.8517 55.6244 58.4006L54.676 52.6589H45.2335L44.3676 58.4006C44.2851 58.8107 43.9553 59.0978 43.5842 59.0978H33.1108C32.6985 59.0978 32.3274 58.6876 32.4098 58.2365L43.9965 1.55853C44.079 1.23044 44.4088 0.943359 44.7799 0.943359H55.0884H55.1296ZM53.6864 44.0055L49.9754 21.08L46.3468 44.0055H53.6452H53.6864Z" fill="white"/>
<path d="M104.033 16.1996V17.84C104.033 18.1681 103.703 18.5372 103.332 18.5372H92.6935C92.2811 18.5372 91.9925 18.2091 91.9925 17.84V15.3793C91.9925 12.5495 90.0957 11.2782 87.7867 11.2782C85.4776 11.2782 83.5808 12.5495 83.5808 15.3793V16.3226C83.5808 17.9631 84.4467 19.4805 85.8074 20.2597L97.2292 26.7395C101.435 29.2002 104.033 33.6705 104.033 38.5509V43.8414C104.033 55.0375 96.7344 59.9999 87.7867 59.9999C78.8389 59.9999 71.5406 55.0375 71.5406 43.8414V42.3239C71.5406 41.9138 71.788 41.6268 72.2416 41.6268H82.8798C83.2097 41.6268 83.5808 41.8728 83.5808 42.3239V44.7026C83.5808 47.6144 85.4776 48.8858 87.7867 48.8858C90.0957 48.8858 91.9925 47.6144 91.9925 44.7026V39.2481C91.9925 37.6076 91.1266 36.1722 89.6834 35.311L78.3441 28.8311C74.1383 26.4525 71.5406 21.9002 71.5406 17.1018V16.2406C71.5406 5.12645 78.7565 0.0820312 87.7867 0.0820312C96.8168 0.0820312 104.033 5.12645 104.033 16.2406V16.1996Z" fill="white"/>
<path d="M143.328 16.1996V17.84C143.328 18.1681 142.998 18.5372 142.627 18.5372H131.989C131.577 18.5372 131.288 18.2091 131.288 17.84V15.3793C131.288 12.5495 129.391 11.2782 127.082 11.2782C124.773 11.2782 122.876 12.5495 122.876 15.3793V16.3226C122.876 17.9631 123.742 19.4805 125.103 20.2597L136.525 26.7395C140.731 29.2002 143.328 33.6705 143.328 38.5509V43.8414C143.328 55.0375 136.03 59.9999 127.082 59.9999C118.134 59.9999 110.836 55.0375 110.836 43.8414V42.3239C110.836 41.9138 111.084 41.6268 111.537 41.6268H122.175C122.505 41.6268 122.876 41.8728 122.876 42.3239V44.7026C122.876 47.6144 124.773 48.8858 127.082 48.8858C129.391 48.8858 131.288 47.6144 131.288 44.7026V39.2481C131.288 37.6076 130.422 36.1722 128.979 35.311L117.64 28.8311C113.434 26.4525 110.836 21.9002 110.836 17.1018V16.2406C110.836 5.12645 118.052 0.0820312 127.082 0.0820312C136.112 0.0820312 143.328 5.12645 143.328 16.2406V16.1996Z" fill="white"/>
<path d="M218.786 0.943359C219.198 0.943359 219.487 1.27145 219.487 1.64056V11.4013C219.487 11.8114 219.239 12.0985 218.786 12.0985H209.055V58.4416C209.055 58.7697 208.807 59.1388 208.354 59.1388H197.715C197.303 59.1388 197.015 58.8107 197.015 58.4416V12.0985H187.283C186.871 12.0985 186.582 11.8524 186.582 11.4013V1.64056C186.582 1.31246 186.83 0.943359 187.283 0.943359H218.745H218.786Z" fill="white"/>
<path d="M178.707 0.943359C179.037 0.943359 179.408 1.27145 179.408 1.64056V58.4006C179.408 58.7287 179.078 59.0978 178.707 59.0978H167.945C167.615 59.0978 167.326 58.7697 167.326 58.4006V1.64056C167.326 1.31246 167.574 0.943359 167.945 0.943359H178.707Z" fill="white"/>
</svg>
