<?xml version="1.0" encoding="UTF-8"?><svg id="a" xmlns="http://www.w3.org/2000/svg" width="204.36" height="54" viewBox="0 0 204.36 54"><defs><style>.b{fill:#fff;}.c{fill:#ef8200;}.d{fill:#009844;}.e{fill:#e50012;}</style></defs><path class="b" d="M146.61,22.92c-.52,1.63-.91,3.29-2.32,4.89-1.41,1.61-3.11,2.53-6.02,2.53l2.1-13.31h-6.14l-3.09,19.66h1.29c1.66,0,6.01.11,9.18-1.17,4.76-1.92,7.93-5.28,8.97-12.59h-3.98Z"/><path class="b" d="M46.34,14.14h-6.66l-.44,2.77h-2.51l-.7,4.41h2.52l-1.21,7.63c-.27,1.37-.27,3.42,1.16,5.32,1.43,1.89,3.35,2.22,5.25,2.22h9.19l.7-4.44h-7.78c-1.03,0-1.4-.14-1.86-.72-.39-.49-.1-1.92,0-2.48l1.19-7.53h5.4c0,.68-.13,2.12-.75,2.94-.6.79-1.14,1.46-2.97,1.5l-.51,3.22h1.91c1.47,0,3.71.29,6.13-2.05,2.06-1.99,2.46-5.9,2.48-6.07.2-1.4.39-3.95.39-3.95h-11.39s.44-2.77.44-2.77Z"/><polygon class="b" points="93.25 16.91 84.62 16.91 83.92 21.35 92.55 21.35 93.25 16.91"/><path class="b" d="M97.9,20.7c-.3,2.22-1.19,5.34-3.69,7.27-2.78,2.15-5.31,2.86-10.5,2.68h-1.35l-.95,5.84h3.05c.98-.01,4.45.09,6.49-.4,3.3-.78,5.58-2.29,7.76-4.89,2.74-3.26,3.36-8.22,3.49-10.5h-4.31Z"/><path class="b" d="M58.21,21.35h11.02c-.18,1.86-.3,2.67-.39,3.2-.1.55-.59,3.56-2.38,5.68-1.9,2.24-5.54,2.06-6.72,2.06l-.65,4.22c3.9-.01,8.09.16,12.43-3.47,2.81-2.35,4.03-6.25,4.53-8.91.52-2.77,1.22-7.21,1.22-7.21h-18.35l-.7,4.44Z"/><polygon class="b" points="77.4 21.33 79.72 21.33 80.42 16.91 78.1 16.91 77.4 21.33"/><polygon class="b" points="83.52 16.91 81.2 16.91 80.5 21.33 82.82 21.33 83.52 16.91"/><polygon class="b" points="102.21 29.9 109.42 29.9 110.03 26.05 102.82 26.05 102.21 29.9"/><path class="b" d="M125.34,16.88c-.52,2.12-1.6,5.12-3.95,6.95-2.29,1.78-4.6,2.28-6.85,2.27-1.84,0-3.07,0-3.07,0l-.61,3.86h3.72c.81,0,2.31.03,3.78-.03l-1.04,6.56h6.66l1.28-8.06c.81-.4,1.66-.94,2.57-1.69,3.94-3.25,4.89-8.21,5.19-9.85h-7.67Z"/><path class="b" d="M147.14,21.35h11.02c-.18,1.86-.3,2.67-.39,3.2-.1.55-.59,3.56-2.38,5.68-1.9,2.24-5.54,2.06-6.72,2.06l-.65,4.22c3.9-.01,8.09.16,12.43-3.47,2.81-2.35,4.03-6.25,4.53-8.91.52-2.77,1.22-7.21,1.22-7.21h-18.35l-.7,4.44Z"/><polygon class="b" points="166.33 21.33 168.65 21.33 169.35 16.91 167.03 16.91 166.33 21.33"/><polygon class="b" points="172.45 16.91 170.13 16.91 169.43 21.33 171.74 21.33 172.45 16.91"/><polygon class="b" points="182.57 16.91 173.94 16.91 173.24 21.35 181.87 21.35 182.57 16.91"/><path class="b" d="M187.22,20.7c-.3,2.22-1.19,5.34-3.69,7.27-2.78,2.15-5.31,2.86-10.5,2.68h-1.35l-.95,5.84h3.05c.98-.01,4.45.09,6.49-.4,3.3-.78,5.58-2.29,7.76-4.89,2.74-3.26,3.36-8.22,3.49-10.5h-4.31Z"/><path class="b" d="M10.04,12.74h11.88c-1.17.44-4.73,2.85-5.62,4.47h-6.25v-4.47Z"/><path class="b" d="M19.51,25.89c-.17,1.62-.18,3.59-.18,5.66h-5.15c0-2.07.08-4.04.25-5.66h5.07Z"/><path class="b" d="M19.97,21.43c.1-1.28,1.86-3.37,3.56-3.92v-4.94c-4.67,2.09-7.71,5.26-8.37,8.85h4.81Z"/><path class="b" d="M22.22,22.16h0s0-.2,0-.2h-1.02v3.35h1.02v-2.35h0c.05-.37.58-.27.58-.06v2.41h1.02v-2.84c0-.6-.85-.84-1.59-.31Z"/><polygon class="b" points="9.56 21.97 11.44 21.97 11.44 22.71 10.61 22.71 10.61 23.34 11.44 23.34 11.44 23.97 10.61 23.97 10.61 24.6 11.44 24.6 11.44 25.31 9.56 25.31 9.56 21.97"/><polygon class="b" points="14.04 21.97 15.92 21.97 15.92 22.71 15.1 22.71 15.1 23.34 15.92 23.34 15.92 23.97 15.1 23.97 15.1 24.6 15.92 24.6 15.92 25.31 14.04 25.31 14.04 21.97"/><polygon class="b" points="12.85 24.6 13.67 24.6 13.67 25.31 11.79 25.31 11.79 21.97 12.85 21.97 12.85 24.6"/><polygon class="b" points="16.19 21.97 16.72 25.31 18.08 25.31 18.72 21.97 17.93 21.97 17.52 24.23 17.12 21.97 16.19 21.97"/><polygon class="b" points="18.99 21.97 20.88 21.97 20.88 22.71 20.05 22.71 20.05 23.34 20.88 23.34 20.88 23.97 20.05 23.97 20.05 24.6 20.88 24.6 20.88 25.31 18.99 25.31 18.99 21.97"/><path class="b" d="M19.86,32.07v-.95h2.78c.36,0,.8-.18,1.11-.49.31-.31.36-.71.44-1.11l2.05-15.39h1.51v22.55H5.54V14.13h1.51l2.05,15.39c.09.4.13.8.44,1.11.31.31.76.49,1.11.49h3.01v.95h6.2Z"/><path class="e" d="M146.61,22.92c-.52,1.63-.91,3.29-2.32,4.89-1.41,1.61-3.11,2.53-6.02,2.53l2.1-13.31h-6.14l-3.09,19.66h1.29c1.66,0,6.01.11,9.18-1.17,4.76-1.92,7.93-5.28,8.97-12.59h-3.98Z"/><path class="e" d="M46.34,14.14h-6.66l-.44,2.77h-2.51l-.7,4.41h2.52l-1.21,7.63c-.27,1.37-.27,3.42,1.16,5.32,1.43,1.89,3.35,2.22,5.25,2.22h9.19l.7-4.44h-7.78c-1.03,0-1.4-.14-1.86-.72-.39-.49-.1-1.92,0-2.48l1.19-7.53h5.4c0,.68-.13,2.12-.75,2.94-.6.79-1.14,1.46-2.97,1.5l-.51,3.22h1.91c1.47,0,3.71.29,6.13-2.05,2.06-1.99,2.46-5.9,2.48-6.07.2-1.4.39-3.95.39-3.95h-11.39s.44-2.77.44-2.77Z"/><polygon class="e" points="93.25 16.91 84.62 16.91 83.92 21.35 92.55 21.35 93.25 16.91"/><path class="e" d="M97.9,20.7c-.3,2.22-1.19,5.34-3.69,7.27-2.78,2.15-5.31,2.86-10.5,2.68h-1.35l-.95,5.84h3.05c.98-.01,4.45.09,6.49-.4,3.3-.78,5.58-2.29,7.76-4.89,2.74-3.26,3.36-8.22,3.49-10.5h-4.31Z"/><path class="e" d="M58.21,21.35h11.02c-.18,1.86-.3,2.67-.39,3.2-.1.55-.59,3.56-2.38,5.68-1.9,2.24-5.54,2.06-6.72,2.06l-.65,4.22c3.9-.01,8.09.16,12.43-3.47,2.81-2.35,4.03-6.25,4.53-8.91.52-2.77,1.22-7.21,1.22-7.21h-18.35l-.7,4.44Z"/><polygon class="e" points="77.4 21.33 79.72 21.33 80.42 16.91 78.1 16.91 77.4 21.33"/><polygon class="e" points="83.52 16.91 81.2 16.91 80.5 21.33 82.82 21.33 83.52 16.91"/><polygon class="e" points="102.21 29.9 109.42 29.9 110.03 26.05 102.82 26.05 102.21 29.9"/><path class="e" d="M125.34,16.88c-.52,2.12-1.6,5.12-3.95,6.95-2.29,1.78-4.6,2.28-6.85,2.28-1.84,0-3.07,0-3.07,0l-.61,3.86h3.72c.81,0,2.31.03,3.78-.03l-1.04,6.56h6.66l1.28-8.06c.81-.4,1.66-.94,2.57-1.69,3.94-3.25,4.89-8.21,5.19-9.85h-7.67Z"/><path class="e" d="M147.14,21.35h11.02c-.18,1.86-.3,2.67-.39,3.2-.1.55-.59,3.56-2.38,5.68-1.9,2.24-5.54,2.06-6.72,2.06l-.65,4.22c3.9-.01,8.09.16,12.43-3.47,2.81-2.35,4.03-6.25,4.53-8.91.52-2.77,1.22-7.21,1.22-7.21h-18.35l-.7,4.44Z"/><polygon class="e" points="166.33 21.33 168.65 21.33 169.35 16.91 167.03 16.91 166.33 21.33"/><polygon class="e" points="172.44 16.91 170.13 16.91 169.43 21.33 171.74 21.33 172.44 16.91"/><polygon class="e" points="182.57 16.91 173.94 16.91 173.24 21.35 181.87 21.35 182.57 16.91"/><path class="e" d="M187.22,20.7c-.3,2.22-1.19,5.34-3.69,7.27-2.78,2.15-5.31,2.86-10.5,2.68h-1.35l-.95,5.84h3.05c.98-.01,4.45.09,6.49-.4,3.3-.78,5.58-2.29,7.76-4.89,2.74-3.26,3.36-8.22,3.49-10.5h-4.31Z"/><path class="c" d="M10.04,12.74h11.88c-1.17.44-4.73,2.85-5.62,4.47h-6.25v-4.47Z"/><path class="e" d="M19.51,25.89c-.17,1.62-.18,3.59-.18,5.66h-5.15c0-2.07.08-4.04.25-5.66h5.07Z"/><path class="e" d="M19.97,21.43c.1-1.28,1.86-3.37,3.56-3.92v-4.94c-4.67,2.09-7.71,5.26-8.37,8.85h4.81Z"/><path class="d" d="M22.22,22.16h0s0-.2,0-.2h-1.02v3.35h1.02v-2.35h0c.05-.37.58-.27.58-.06v2.41h1.02v-2.84c0-.6-.85-.84-1.59-.31Z"/><polygon class="d" points="9.56 21.97 11.44 21.97 11.44 22.71 10.61 22.71 10.61 23.34 11.44 23.34 11.44 23.97 10.61 23.97 10.61 24.6 11.44 24.6 11.44 25.31 9.56 25.31 9.56 21.97"/><polygon class="d" points="14.04 21.97 15.92 21.97 15.92 22.71 15.1 22.71 15.1 23.34 15.92 23.34 15.92 23.97 15.1 23.97 15.1 24.6 15.92 24.6 15.92 25.31 14.04 25.31 14.04 21.97"/><polygon class="d" points="12.85 24.6 13.67 24.6 13.67 25.31 11.79 25.31 11.79 21.97 12.85 21.97 12.85 24.6"/><polygon class="d" points="16.19 21.97 16.72 25.31 18.08 25.31 18.72 21.97 17.93 21.97 17.52 24.23 17.12 21.97 16.19 21.97"/><polygon class="d" points="18.99 21.97 20.88 21.97 20.88 22.71 20.05 22.71 20.05 23.34 20.88 23.34 20.88 23.97 20.05 23.97 20.05 24.6 20.88 24.6 20.88 25.31 18.99 25.31 18.99 21.97"/><path class="d" d="M19.86,32.07v-.95h2.78c.36,0,.8-.18,1.11-.49.31-.31.36-.71.44-1.11l2.05-15.39h1.51v22.55H5.54V14.13h1.51l2.05,15.39c.09.4.13.8.44,1.11.31.31.76.49,1.11.49h3.01v.95h6.2Z"/></svg>